P3
# CREATOR: GIMP PNM Filter Version 1.1
255 1
255
97
201
201
97
201
201
98
203
203
99
205
205
100
207
207
100
208
208
100
208
208
101
208
208
101
208
208
101
209
209
101
210
210
102
211
211
103
213
213
103
213
213
104
214
214
104
216
216
105
217
217
105
219
219
107
221
221
108
224
224
109
227
227
110
228
228
111
230
230
112
232
232
113
234
234
113
235
235
114
236
236
114
236
236
114
237
236
114
236
235
115
235
233
115
234
231
116
232
228
117
230
225
118
228
220
119
226
216
120
223
212
121
220
207
122
217
201
124
213
195
125
210
189
126
206
183
127
203
177
128
200
172
130
196
166
131
193
160
133
191
155
134
188
150
134
186
146
136
183
141
137
181
137
139
179
134
140
177
130
141
175
125
143
173
121
145
170
116
147
168
111
149
165
105
151
163
100
153
161
95
156
159
90
158
157
86
159
155
81
161
153
76
163
151
72
164
150
69
166
148
66
166
147
64
167
146
62
167
145
61
168
144
60
167
142
60
166
140
60
165
139
61
162
136
64
159
133
68
154
129
74
148
124
81
139
116
92
129
108
106
117
98
120
105
87
135
92
76
150
80
65
165
68
56
179
59
47
191
49
39
202
41
32
212
34
26
221
27
20
228
22
16
235
19
13
239
16
11
242
14
9
244
13
8
246
12
7
247
11
7
247
11
7
248
12
7
247
12
8
246
14
8
245
16
9
242
19
11
238
24
13
234
29
16
227
36
18
219
45
22
209
56
25
197
68
29
183
82
32
168
97
36
150
114
39
133
130
43
115
147
46
98
162
49
82
175
51
68
188
53
55
198
55
45
205
56
38
210
58
34
213
59
32
215
60
31
215
62
32
215
63
33
215
66
35
214
68
37
212
70
40
210
72
43
209
74
46
207
76
48
205
78
50
204
78
51
203
78
53
203
78
53
203
77
54
203
75
54
204
72
55
205
69
55
207
65
56
209
60
57
210
56
59
213
51
61
215
48
65
216
44
68
218
41
73
219
38
78
220
36
84
221
33
89
222
32
95
222
30
100
222
28
105
223
27
110
223
26
114
223
26
118
223
25
122
223
24
126
222
24
129
222
23
133
222
23
135
222
23
137
222
22
140
222
22
143
222
22
145
222
21
147
222
20
148
222
20
149
222
20
150
222
20
151
221
20
152
221
21
153
220
21
153
220
22
154
219
22
155
219
24
155
218
25
156
217
26
157
216
28
158
215
30
158
214
31
159
213
33
160
212
34
160
212
36
161
211
38
161
211
39
161
211
42
161
211
44
161
212
48
161
211
53
160
212
60
159
212
67
158
212
76
156
212
85
155
213
93
153
212
103
152
212
112
150
213
122
148
213
132
146
213
141
144
213
149
142
213
156
140
213
163
138
214
168
136
215
172
134
215
176
133
216
179
132
216
180
131
217
182
129
217
183
128
217
184
128
218
184
127
218
185
126
218
185
126
219
185
125
218
185
125
219
185
124
219
185
124
219
184
124
219
184
124
219
185
123
219
184
123
219
184
123
219
184
123
220
184
123
220
184
122
220
184
123
221
184
123
221
185
122
222
185
122
222
185
122
223
185
122
223
185
123
224
185
123
224
185
122
225
186
122
225
186
122
226
186
122
226
186
122
226
186
122
227
186
122
227
186
122
226
186
122
226
187
123
225
187
123
225
187
123
224
187
123
224
187
124
223
186
124
222
186
124
221
186
125
220
186
125
218
186
125
217
185
126
215
185
126
214
184
126
213
185
126
