P3
# CREATOR: GIMP PNM Filter Version 1.1
255 1
255
255
255
255
254
254
254
253
254
254
252
254
254
251
254
254
251
254
254
250
254
254
249
254
254
248
254
254
248
254
254
247
254
254
246
254
254
245
254
254
245
254
254
244
254
254
243
254
254
242
254
254
241
254
254
241
254
254
240
254
254
239
254
254
238
254
254
238
254
254
237
254
254
236
254
254
235
254
254
235
254
254
234
254
254
233
254
254
232
254
254
231
254
254
231
253
253
230
253
253
229
253
253
228
253
253
228
253
253
227
253
253
226
253
253
225
253
253
225
253
253
224
253
253
223
253
253
222
253
253
221
253
253
221
253
253
220
253
253
219
253
253
218
253
253
218
253
253
217
253
253
216
253
253
215
253
253
215
253
253
214
253
253
213
253
253
212
253
253
211
253
253
211
253
253
210
253
253
209
253
253
208
253
253
208
252
252
207
252
252
206
252
252
205
252
252
205
252
252
204
252
252
203
252
252
202
252
252
201
252
252
201
252
252
200
252
252
199
252
252
198
252
252
198
252
252
197
252
252
196
252
252
195
252
252
195
252
252
194
252
252
193
252
252
192
252
252
191
252
252
191
252
252
190
252
252
189
252
252
188
252
252
188
252
252
187
252
252
186
252
252
185
252
252
185
252
251
184
251
251
183
251
251
182
251
251
182
251
251
181
251
251
180
251
251
179
251
251
178
251
251
178
251
251
177
251
251
176
251
251
175
251
251
175
251
251
174
251
251
173
251
251
172
251
251
171
251
251
171
251
251
170
251
251
169
251
251
168
251
251
168
251
251
167
251
251
166
251
251
165
251
251
165
251
251
164
251
251
163
251
251
162
251
251
162
250
250
161
250
250
160
250
250
159
250
250
158
250
250
158
250
250
157
250
250
156
250
250
155
250
250
155
250
250
154
250
250
153
250
250
152
250
250
152
250
250
151
250
250
150
250
250
149
250
250
148
250
250
148
250
250
147
250
250
146
250
250
145
250
250
145
250
250
144
250
250
143
250
250
142
250
250
142
250
250
141
250
250
140
250
250
139
250
250
138
250
250
138
249
249
137
249
249
136
249
249
135
249
249
135
249
249
134
249
249
133
249
249
132
249
249
132
249
249
131
249
249
130
249
249
129
249
249
128
249
249
128
249
249
127
249
249
126
249
249
125
249
249
125
249
249
124
249
249
123
249
249
122
249
249
122
249
249
121
249
249
120
249
249
119
249
249
118
249
249
118
249
249
117
249
249
116
249
249
115
249
249
115
248
248
114
248
248
113
248
248
112
248
248
112
248
248
111
248
248
110
248
248
109
248
248
108
248
248
108
248
248
107
248
248
106
248
248
105
248
248
105
248
248
104
248
248
103
248
248
102
248
248
102
248
248
101
248
248
100
248
248
99
248
248
98
248
248
98
248
248
97
248
248
96
248
248
95
248
248
95
248
248
94
248
248
93
248
248
92
248
248
92
247
247
91
247
247
90
247
247
89
247
247
88
247
247
88
247
247
87
247
247
86
247
247
85
247
247
85
247
247
84
247
247
83
247
247
82
247
247
82
247
247
81
247
247
80
247
247
79
247
247
79
247
247
78
247
247
77
247
247
76
247
247
75
247
247
75
247
247
74
247
247
73
247
247
72
247
247
72
247
247
71
247
247
70
247
247
69
247
247
68
246
246
68
246
246
67
246
246
66
246
246
65
246
246
65
246
246
64
246
246
63
246
246
62
246
246
62
246
246
61
246
246
60
246
246
59
246
246
