P3
# CREATOR: GIMP PNM Filter Version 1.1
255 1
255
255
254
254
254
254
253
254
254
253
254
254
252
254
254
251
254
254
250
254
254
249
254
254
249
254
253
248
254
253
247
254
253
246
254
253
245
254
253
244
254
253
244
254
253
243
254
253
242
254
252
241
254
252
240
254
252
240
254
252
239
254
252
238
254
252
237
254
252
236
254
252
236
254
252
235
254
251
234
254
251
233
254
251
232
254
251
231
254
251
231
254
251
230
254
251
229
253
250
228
253
250
227
253
250
227
253
250
226
253
250
225
253
250
224
253
250
223
253
250
222
253
250
222
253
249
221
253
249
220
253
249
219
253
249
218
253
249
218
253
249
217
253
249
216
253
249
215
253
248
214
253
248
214
253
248
213
253
248
212
253
248
211
253
248
210
253
248
209
253
248
209
253
247
208
253
247
207
253
247
206
253
247
205
253
247
205
253
247
204
252
247
203
252
247
202
252
246
201
252
246
200
252
246
200
252
246
199
252
246
198
252
246
197
252
246
196
252
246
196
252
245
195
252
245
194
252
245
193
252
245
192
252
245
192
252
245
191
252
245
190
252
245
189
252
244
188
252
244
187
252
244
187
252
244
186
252
244
185
252
244
184
252
244
183
252
244
183
252
243
182
252
243
181
252
243
180
252
243
179
252
243
178
251
243
178
251
243
177
251
243
176
251
242
175
251
242
174
251
242
174
251
242
173
251
242
172
251
242
171
251
242
170
251
242
170
251
241
169
251
241
168
251
241
167
251
241
166
251
241
165
251
241
165
251
241
164
251
241
163
251
240
162
251
240
161
251
240
161
251
240
160
251
240
159
251
240
158
251
240
157
251
240
156
251
239
156
251
239
155
251
239
154
251
239
153
251
239
152
250
239
152
250
239
151
250
239
150
250
238
149
250
238
148
250
238
148
250
238
147
250
238
146
250
238
145
250
238
144
250
238
143
250
237
143
250
237
142
250
237
141
250
237
140
250
237
139
250
237
139
250
237
138
250
237
137
250
236
136
250
236
135
250
236
134
250
236
134
250
236
133
250
236
132
250
236
131
250
236
130
250
235
130
250
235
129
250
235
128
250
235
127
249
235
126
249
235
126
249
235
125
249
235
124
249
235
123
249
234
122
249
234
121
249
234
121
249
234
120
249
234
119
249
234
118
249
234
117
249
234
117
249
233
116
249
233
115
249
233
114
249
233
113
249
233
112
249
233
112
249
233
111
249
233
110
249
232
109
249
232
108
249
232
108
249
232
107
249
232
106
249
232
105
249
232
104
249
232
104
249
231
103
249
231
102
248
231
101
248
231
100
248
231
99
248
231
99
248
231
98
248
231
97
248
230
96
248
230
95
248
230
95
248
230
94
248
230
93
248
230
92
248
230
91
248
230
90
248
229
90
248
229
89
248
229
88
248
229
87
248
229
86
248
229
86
248
229
85
248
229
84
248
228
83
248
228
82
248
228
82
248
228
81
248
228
80
248
228
79
248
228
78
248
228
77
248
227
77
247
227
76
247
227
75
247
227
74
247
227
73
247
227
73
247
227
72
247
227
71
247
226
70
247
226
69
247
226
68
247
226
68
247
226
67
247
226
66
247
226
65
247
226
64
247
225
64
247
225
63
247
225
62
247
225
61
247
225
60
247
225
60
247
225
59
247
225
58
247
224
57
247
224
56
247
224
55
247
224
55
247
224
54
247
224
53
247
224
52
247
224
51
247
223
51
246
223
50
246
223
49
246
223
48
246
223
47
