P3
# CREATOR: GIMP PNM Filter Version 1.1
255 1
255
217
7
31
217
7
31
218
7
31
219
7
31
220
8
31
221
9
31
222
9
32
224
11
33
226
12
33
227
14
33
228
16
34
229
18
34
229
20
35
230
24
37
232
28
38
233
32
39
234
36
40
235
40
41
236
43
42
236
45
42
236
48
43
236
50
43
235
52
44
234
55
44
233
58
45
232
60
45
231
63
46
231
66
47
230
68
47
229
71
47
228
73
48
227
75
49
225
78
49
225
81
49
224
83
50
224
86
51
224
88
51
224
91
52
224
92
53
225
94
53
225
96
53
225
97
53
224
97
54
224
98
54
224
98
53
224
99
54
224
101
54
224
102
55
224
104
55
224
106
55
225
107
56
225
109
56
226
110
56
226
112
57
226
113
57
226
114
57
226
114
58
226
115
58
226
116
58
227
116
58
228
117
59
228
118
59
228
118
59
229
119
60
230
120
60
230
120
60
230
120
60
231
121
60
231
122
60
231
122
60
231
122
60
231
122
60
232
122
60
231
122
60
231
122
60
230
123
60
230
123
60
229
123
60
229
123
60
229
124
60
229
125
60
229
126
60
229
126
61
229
127
61
228
127
61
228
128
61
228
129
61
228
129
61
228
130
61
228
130
61
227
130
61
226
132
61
225
132
61
223
133
61
221
134
61
220
135
60
217
136
60
214
138
60
210
140
60
207
142
60
203
144
60
200
147
60
196
150
59
192
154
59
189
156
59
185
159
59
183
160
59
180
163
59
176
166
59
172
170
59
168
174
59
165
178
59
162
181
59
159
184
59
156
186
60
155
189
60
153
192
60
152
193
60
151
194
60
152
194
60
152
194
60
153
194
60
154
193
60
154
193
60
154
193
60
155
193
60
155
193
60
155
194
60
156
193
60
157
193
60
157
192
60
157
192
60
157
193
61
156
194
61
155
196
61
155
198
61
153
200
62
152
203
62
150
206
63
148
209
64
147
211
64
146
213
65
144
216
66
142
219
67
141
221
68
139
223
69
138
224
71
137
226
72
136
227
74
134
228
76
133
230
78
131
231
80
130
233
82
128
234
84
127
235
87
126
236
89
125
237
91
124
238
93
124
238
96
123
238
99
122
238
102
122
238
104
122
238
106
122
237
108
122
237
110
122
236
112
123
236
114
123
236
115
123
235
115
123
235
116
123
235
117
124
234
118
124
233
119
124
233
119
124
232
120
124
232
120
124
231
120
123
231
120
123
230
120
123
230
120
123
230
120
123
229
119
123
229
119
123
229
118
122
228
117
122
228
117
122
228
117
122
228
117
122
227
117
122
227
117
122
227
117
122
227
118
121
226
118
121
226
118
120
225
120
119
224
121
118
222
123
117
221
125
117
221
126
116
220
127
116
221
128
116
221
129
116
221
130
116
221
131
116
220
132
116
220
134
116
221
134
116
221
135
116
221
136
116
221
139
117
222
142
117
223
147
118
224
152
118
225
157
119
227
162
120
228
166
120
229
170
120
230
173
120
231
174
121
232
176
121
232
178
121
232
179
121
233
180
122
233
181
122
233
183
122
234
184
122
234
187
122
235
190
122
235
192
123
236
194
123
236
195
123
236
196
123
236
197
123
236
197
123
236
198
123
236
199
124
236
199
124
236
200
124
236
201
124
236
202
124
236
203
124
236
204
124
237
205
124
237
206
124
237
207
123
237
207
123
237
208
123
237
208
123
237
209
124
237
209
124
237
210
123
237
210
123
236
209
123
236
209
123
236
209
