P3
# CREATOR: GIMP PNM Filter Version 1.1
255 1
255
87
58
110
82
55
112
77
51
113
80
50
112
91
46
114
93
42
115
94
41
115
100
39
115
102
38
113
98
40
111
100
40
109
95
40
105
94
41
101
90
40
98
94
39
94
94
39
90
77
37
84
68
39
77
69
38
74
69
38
74
73
36
77
90
42
81
96
49
77
96
52
71
103
60
77
90
50
66
83
45
56
83
43
53
86
40
49
86
44
51
81
46
53
80
47
54
81
54
58
84
58
62
85
62
66
82
59
65
80
57
63
76
55
60
73
52
58
68
48
55
65
45
52
65
43
52
67
42
53
68
39
54
75
37
59
83
37
65
86
37
67
86
37
69
86
38
72
86
38
74
85
39
75
83
39
75
78
39
75
76
39
74
79
40
76
84
42
78
83
42
79
82
42
79
78
43
78
75
41
78
75
40
79
80
39
81
81
38
82
82
38
82
82
39
83
82
39
83
79
40
83
79
41
85
79
40
87
80
39
88
79
39
88
77
38
86
75
36
84
73
35
81
70
36
79
74
37
78
78
38
80
80
37
80
80
41
82
79
42
82
78
43
80
79
44
79
79
44
78
76
42
77
71
42
76
72
43
75
74
44
74
75
45
75
79
46
76
81
47
77
86
50
78
88
53
79
87
54
79
85
56
80
84
57
81
85
58
82
86
57
83
91
58
85
97
61
86
98
63
86
94
67
86
93
67
84
88
68
82
87
70
81
87
71
83
85
70
83
83
69
83
85
69
83
88
70
84
88
69
82
90
69
82
91
70
84
89
72
87
87
70
86
85
69
86
83
69
86
81
69
85
79
71
84
76
68
82
72
72
82
68
73
84
70
75
84
71
75
86
73
75
87
70
76
86
70
77
85
69
76
83
66
69
77
65
66
75
66
66
75
69
68
76
69
71
77
68
73
77
66
70
74
63
66
69
58
58
61
55
58
59
55
57
58
56
58
59
58
60
62
62
65
67
64
70
72
69
64
69
72
68
72
73
73
75
74
76
75
77
72
72
79
73
75
76
72
74
76
72
73
75
71
73
74
68
71
71
68
69
69
66
67
68
67
68
68
67
69
68
68
69
67
69
69
65
64
64
65
65
65
64
64
64
63
65
65
62
66
67
62
64
69
63
63
70
65
65
73
66
61
71
66
59
71
67
59
73
66
57
70
66
56
71
67
55
71
70
57
73
69
54
71
70
53
71
69
52
70
71
51
69
73
50
69
73
51
70
75
53
72
76
52
71
75
52
70
74
52
70
74
52
69
75
52
70
79
51
72
80
51
70
81
51
69
82
51
68
88
52
70
92
51
68
90
49
68
87
47
67
86
45
65
83
41
62
79
40
61
76
38
60
76
38
59
79
39
60
77
41
61
76
42
59
79
46
59
78
47
58
76
47
56
78
49
55
83
50
56
84
51
56
82
48
55
84
46
55
84
44
55
85
43
57
92
42
62
90
41
63
85
40
66
78
36
68
75
34
70
73
37
69
79
42
70
82
45
71
83
46
71
88
47
72
95
48
75
102
49
77
102
48
78
101
46
78
97
44
78
95
42
79
90
42
78
89
44
77
90
45
78
89
44
79
89
46
80
92
46
83
89
45
84
92
46
86
94
44
91
101
43
94
101
42
96
95
42
97
98
42
97
96
43
96
94
46
94
94
50
93
93
51
93
89
51
93
87
50
93
89
50
95
86
49
95
82
47
96
76
47
95
71
48
95
81
48
98
86
48
99
82
51
96
74
59
92
