P3
# CREATOR: GIMP PNM Filter Version 1.1
255 1
255
168
197
145
173
200
143
178
204
142
175
205
143
164
209
141
162
213
140
161
214
140
155
216
140
153
217
142
157
215
144
155
215
146
160
215
150
161
214
154
165
215
157
161
216
161
161
216
165
178
218
171
187
216
178
186
217
181
186
217
181
182
219
178
165
213
174
159
206
178
159
203
184
152
195
178
165
205
189
172
210
199
172
212
202
169
215
206
169
211
204
174
209
202
175
208
201
174
201
197
171
197
193
170
193
189
173
196
190
175
198
192
179
200
195
182
203
197
187
207
200
190
210
203
190
212
203
188
213
202
187
216
201
180
218
196
172
218
190
169
218
188
169
218
186
169
217
183
169
217
181
170
216
180
172
216
180
177
216
180
179
216
181
176
215
179
171
213
177
172
213
176
173
213
176
177
212
177
180
214
177
180
215
176
175
216
174
174
217
173
173
217
173
173
216
172
173
216
172
176
215
172
176
214
170
176
215
168
175
216
167
176
216
167
178
217
169
180
219
171
182
220
174
185
219
176
181
218
177
177
217
175
175
218
175
175
214
173
176
213
173
177
212
175
176
211
176
176
211
177
179
213
178
184
213
179
183
212
180
181
211
181
180
210
180
176
209
179
174
208
178
169
205
177
167
202
176
168
201
176
170
199
175
171
198
174
170
197
173
169
198
172
164
197
170
158
194
169
157
192
169
161
188
169
162
188
171
167
187
173
168
185
174
168
184
172
170
185
172
172
186
172
170
186
172
167
185
171
167
186
173
165
186
173
164
185
171
166
183
168
168
185
169
170
186
169
172
186
169
174
186
170
176
184
171
179
187
173
183
183
173
187
182
171
185
180
171
184
180
169
182
180
168
185
179
169
185
178
170
186
179
172
189
186
178
190
189
180
189
189
180
186
187
179
186
184
178
187
182
178
189
185
181
192
189
186
197
197
194
200
197
196
200
198
197
199
197
196
197
195
193
193
190
188
191
185
183
186
191
186
183
187
183
182
182
180
181
179
180
178
183
183
176
182
180
179
183
181
179
183
182
180
184
182
181
187
184
184
187
186
186
189
188
187
188
187
187
188
186
187
187
186
188
186
186
190
191
191
190
190
190
191
191
191
192
190
190
193
189
188
193
191
186
192
192
185
190
190
182
189
194
184
189
196
184
188
196
182
189
198
185
189
199
184
188
200
184
185
198
182
186
201
184
185
202
184
186
203
185
184
204
186
182
205
186
182
204
185
180
202
183
179
203
184
180
203
185
181
203
185
181
203
186
180
203
185
176
204
183
175
204
185
174
204
186
173
204
187
167
203
185
163
204
187
165
206
187
168
208
188
169
210
190
172
214
193
176
215
194
179
217
195
179
217
196
176
216
195
178
214
194
179
213
196
176
209
196
177
208
197
179
208
199
177
206
200
172
205
199
171
204
199
173
207
200
171
209
200
171
211
200
170
212
198
163
213
193
165
214
192
170
215
189
177
219
187
180
221
185
182
218
186
176
213
185
173
210
184
172
209
184
167
208
183
160
207
180
153
206
178
153
207
177
154
209
177
158
211
177
160
213
176
165
213
177
166
211
178
165
210
177
166
211
176
166
209
175
163
209
172
166
210
171
163
209
169
161
211
164
154
212
161
154
213
159
160
213
158
157
213
158
159
212
159
161
209
161
161
205
162
162
204
162
166
204
162
168
205
162
166
205
160
169
206
160
173
208
159
179
208
160
184
207
160
174
207
157
169
207
156
173
204
159
181
196
163
