P3
# CREATOR: GIMP PNM Filter Version 1.1
255 1
255
68
211
184
72
214
187
75
216
190
78
218
192
80
220
193
82
220
194
84
221
195
86
221
195
86
221
195
86
221
195
86
220
194
85
220
193
84
219
192
83
218
190
82
217
189
80
216
187
78
214
184
77
212
181
76
209
179
75
207
175
75
203
172
75
200
168
76
197
165
78
194
161
80
192
158
82
189
155
85
188
153
86
187
151
89
187
150
90
187
149
92
188
148
93
188
148
94
189
147
95
190
147
95
190
146
95
191
146
95
191
147
95
191
147
95
190
146
95
190
146
95
190
146
95
190
145
95
190
146
95
189
145
94
189
146
95
189
146
95
190
145
95
189
145
95
189
144
95
189
143
95
189
142
96
191
141
98
194
142
101
198
142
105
205
143
109
211
145
113
218
146
115
223
147
119
227
148
120
230
148
122
233
148
123
235
148
124
236
149
125
239
150
126
241
151
127
243
152
128
244
153
128
245
154
128
245
154
128
245
154
128
245
154
128
245
154
128
244
153
127
244
153
127
243
153
127
243
153
127
243
153
127
242
153
127
243
153
127
243
153
128
243
153
128
243
153
128
243
153
129
243
153
129
243
154
129
242
154
130
241
155
131
240
155
131
239
157
132
238
158
133
236
160
134
235
162
134
234
165
134
233
168
134
233
172
134
232
176
134
232
179
134
232
182
133
231
185
132
231
188
132
230
189
131
229
192
130
228
192
130
226
193
129
225
193
128
225
194
129
224
193
130
223
192
130
222
191
131
221
190
133
219
188
134
217
186
135
215
184
137
213
181
139
210
179
140
208
177
141
205
174
143
203
172
145
200
170
146
199
168
147
195
165
148
194
164
148
191
161
149
189
159
150
186
157
151
183
156
151
180
153
152
177
151
153
174
149
154
170
147
155
166
144
157
163
142
158
159
141
160
156
139
162
152
138
163
150
137
165
148
137
166
147
136
168
146
136
170
146
137
172
146
137
173
146
138
175
147
139
176
148
140
176
149
141
177
150
141
177
152
143
177
153
143
177
154
144
177
155
145
178
157
146
177
160
147
177
161
148
178
163
150
179
165
152
179
166
153
180
169
155
181
170
157
182
171
159
182
173
161
183
173
162
183
174
162
184
173
164
185
173
164
185
172
164
185
172
164
185
170
163
185
169
163
185
167
162
186
167
161
187
165
160
188
164
159
188
163
158
188
161
157
188
160
156
188
158
154
188
156
152
187
154
150
187
153
149
187
151
147
186
150
146
185
149
144
185
149
144
185
148
143
183
147
142
182
147
142
181
147
141
179
148
141
177
148
140
176
148
140
174
148
139
172
149
139
170
149
139
169
149
138
168
149
138
167
148
138
166
148
138
166
148
137
165
147
137
165
147
136
166
146
137
165
145
136
166
144
136
166
144
137
167
144
138
168
144
139
169
145
140
171
146
142
172
147
144
174
149
145
174
150
147
176
152
149
177
153
151
178
154
152
178
154
153
178
154
153
178
154
154
178
154
153
177
153
152
177
152
151
177
150
150
177
149
149
177
147
147
177
145
145
177
143
143
177
141
141
177
139
139
177
136
136
178
135
135
178
133
133
178
132
132
178
131
131
179
130
130
179
130
130
180
130
130
180
130
130
181
131
131
182
131
131
182
132
132
182
132
132
183
133
133
182
132
132
182
132
132
181
132
132
180
131
131
180
130
130
179
130
130
178
129
129
176
128
128
175
126
126
173
125
125
170
123
123
168
121
121
164
119
119
160
115
115
