P3
# CREATOR: GIMP PNM Filter Version 1.1
255 1
255
81
194
236
81
194
236
81
194
236
81
194
236
81
194
236
82
195
237
82
195
237
82
195
237
84
197
238
88
201
238
95
208
241
104
217
242
113
225
242
117
229
240
119
231
238
119
231
238
120
232
237
120
232
237
120
232
236
120
232
236
120
232
236
120
232
236
120
232
236
120
232
236
120
232
236
120
232
236
120
232
236
121
232
236
122
232
235
124
232
234
127
232
232
131
233
227
138
234
220
151
233
208
166
228
194
181
219
180
190
212
171
194
206
165
196
204
163
196
203
162
196
203
162
197
203
162
197
202
161
197
202
161
196
202
161
196
202
161
196
202
161
196
202
161
196
202
161
196
202
161
197
202
161
197
202
161
197
202
161
197
202
161
197
202
161
197
202
161
197
202
161
197
202
161
197
202
161
197
202
161
197
202
161
197
202
161
197
202
161
196
202
161
196
202
161
196
202
161
197
203
161
199
202
161
204
200
159
210
197
157
217
194
153
222
191
151
224
190
150
226
188
148
226
188
148
226
188
148
226
188
148
226
188
148
226
187
147
226
187
147
226
187
147
226
187
147
226
187
147
226
187
147
226
187
147
226
187
147
226
187
147
226
187
147
226
188
148
226
188
148
226
188
148
226
188
148
226
188
148
226
188
148
226
188
148
226
188
148
226
188
148
226
188
148
226
188
148
226
188
148
226
188
148
226
188
148
226
189
149
226
190
150
227
192
153
227
196
158
227
204
167
229
215
181
230
229
197
232
238
209
233
243
215
236
245
218
238
247
220
239
248
222
240
249
223
241
249
224
241
250
225
241
251
226
239
252
227
237
253
228
236
253
228
236
254
229
235
255
230
235
255
230
235
255
230
235
255
230
235
255
230
235
255
230
235
255
230
235
255
230
235
255
230
235
255
231
235
255
231
235
255
231
235
255
231
235
255
231
235
255
231
235
255
231
236
255
232
236
255
233
235
254
235
229
252
237
216
247
238
200
245
239
186
244
237
179
244
236
177
244
236
177
244
236
176
243
235
176
243
235
176
243
235
176
243
235
176
243
235
176
243
235
176
243
235
176
243
235
176
243
235
176
243
235
176
243
235
176
243
235
176
243
235
176
243
235
176
243
235
176
243
235
176
243
235
176
243
235
176
243
235
176
243
235
176
243
235
176
243
235
176
243
235
176
243
235
176
243
235
176
243
235
174
242
235
164
238
231
150
233
227
141
228
223
137
227
222
137
227
222
136
226
221
136
226
221
136
226
221
136
226
221
136
226
221
136
226
221
136
226
221
136
226
221
136
226
221
136
226
221
136
226
221
136
226
221
136
226
221
136
226
221
136
226
221
136
226
221
136
225
220
131
221
214
124
215
204
118
208
194
113
203
188
110
201
186
110
201
185
109
200
184
109
200
184
108
200
184
108
200
184
108
200
184
108
200
184
108
200
184
108
200
184
108
200
184
108
200
184
109
200
184
109
200
184
111
199
182
112
196
179
113
193
177
114
191
174
115
190
173
115
189
172
115
188
171
115
187
170
115
187
170
115
187
170
115
187
170
115
187
170
115
187
170
115
187
170
115
187
170
115
187
170
115
187
170
115
187
170
115
188
171
114
189
172
113
190
173
112
193
176
106
200
183
94
210
193
82
222
205
73
232
215
66
237
220
64
240
223
62
241
224
61
241
224
61
241
224
61
241
224
61
241
224
61
241
224
61
241
224
61
241
224
60
242
225
60
242
225
60
242
225
60
242
225
