P3
# CREATOR: GIMP PNM Filter Version 1.1
255 1
255
125
31
32
139
37
16
149
41
6
153
41
1
153
41
1
154
42
1
154
42
1
154
42
1
154
42
1
154
42
1
154
42
1
154
42
1
154
42
1
154
42
1
154
42
1
154
42
1
154
42
1
154
42
1
154
42
1
154
42
1
154
42
1
154
42
1
153
42
1
153
41
2
150
41
6
141
39
14
132
33
23
127
24
28
126
17
28
125
15
28
126
15
28
126
15
28
126
15
28
126
15
28
126
15
28
126
15
28
126
15
28
126
15
28
126
15
28
126
15
28
126
15
28
126
15
28
126
15
28
126
15
28
126
15
28
125
15
28
123
16
32
116
20
39
104
24
51
91
30
64
82
33
73
77
35
77
77
35
77
77
35
77
77
35
77
77
35
77
77
35
77
77
35
77
77
35
77
77
35
77
77
35
77
77
34
76
78
34
76
80
31
73
85
27
68
91
21
62
96
16
57
98
14
55
99
14
55
99
14
55
99
14
55
99
14
55
99
14
55
99
14
55
99
14
55
99
14
55
99
14
55
99
14
55
99
14
54
99
14
54
101
13
53
98
12
48
78
10
37
43
9
22
18
9
12
10
9
9
9
9
9
9
9
9
9
9
9
9
9
9
9
9
9
9
9
9
9
9
9
9
9
9
9
9
9
9
9
9
9
9
9
9
9
9
9
9
9
9
9
9
9
9
9
9
9
9
9
9
9
9
9
9
10
11
10
12
16
11
12
23
12
10
28
12
8
29
12
8
30
13
8
30
13
8
30
13
8
30
13
8
30
13
8
30
13
8
30
13
8
30
13
8
30
13
8
30
13
8
30
13
8
30
13
8
30
13
8
30
13
8
30
13
8
30
13
9
30
13
10
30
13
11
30
13
12
31
15
10
32
18
9
33
20
9
33
20
10
34
21
10
34
21
10
34
21
10
34
21
10
34
21
10
34
21
10
34
21
10
34
21
10
34
21
10
34
21
10
34
21
10
34
21
10
34
21
10
34
21
10
34
21
10
33
21
12
34
22
17
36
25
23
40
30
31
43
35
36
46
40
38
47
41
38
47
41
38
47
41
38
47
41
38
47
41
38
47
41
38
47
41
38
47
41
38
47
41
38
47
41
38
47
41
38
47
41
38
47
41
38
46
40
39
46
40
44
45
39
53
41
36
65
37
34
76
33
32
83
30
30
85
30
30
85
30
30
85
30
30
85
30
30
85
30
30
85
30
30
85
30
30
85
30
30
85
30
30
85
30
30
85
30
30
85
30
30
85
30
30
85
30
30
85
30
30
85
30
30
85
31
32
84
36
37
86
44
47
95
49
53
114
46
53
131
38
48
138
34
44
139
32
42
140
32
42
140
32
42
140
32
42
140
32
42
140
32
42
140
32
42
140
32
42
140
32
42
140
32
42
140
32
42
140
32
42
140
32
42
140
32
42
140
32
42
139
32
42
139
33
44
138
38
49
137
48
61
138
58
74
140
65
83
140
67
85
141
68
86
141
68
86
141
68
86
141
68
86
141
68
86
141
68
86
141
68
86
141
68
86
141
68
86
141
68
86
141
68
86
141
68
86
141
68
86
141
68
86
141
68
86
141
68
86
141
68
86
141
68
86
140
68
86
139
70
88
132
78
96
118
92
109
104
105
121
98
111
127
97
112
128
97
112
128
97
112
128
97
112
128
97
112
128
97
112
128
97
112
128
97
112
128
97
112
128
97
112
128
97
112
128
97
112
128
97
112
128
