P3
# CREATOR: GIMP PNM Filter Version 1.1
255 1
255
194
208
167
196
208
167
199
206
165
206
201
160
212
194
153
219
188
147
224
183
142
228
178
137
231
176
135
233
174
133
235
171
130
236
169
128
236
167
126
237
166
125
237
165
124
238
165
124
239
164
123
239
163
122
240
164
123
239
165
124
239
170
129
240
179
138
240
192
151
240
211
170
238
228
187
237
243
202
236
251
210
237
254
213
238
255
214
240
255
214
242
254
213
244
253
212
246
252
211
247
252
211
247
251
210
248
250
209
248
249
208
249
249
208
248
248
207
248
248
207
249
247
206
249
246
205
246
245
204
239
242
201
232
239
198
222
235
194
215
227
186
212
214
174
215
197
156
225
176
136
237
160
119
247
151
111
251
149
109
252
151
112
252
154
116
251
158
120
250
161
124
248
166
129
245
171
136
242
176
141
239
182
149
234
189
157
228
199
167
220
208
177
212
218
188
206
226
198
202
232
205
200
236
210
200
238
213
200
240
215
201
240
217
203
241
218
204
240
219
205
240
220
207
240
219
209
239
219
212
238
219
215
237
218
218
236
218
220
234
217
222
233
215
225
231
215
227
230
213
230
228
212
232
227
212
236
225
210
240
222
208
242
219
206
246
217
204
251
214
202
254
211
199
252
208
197
247
204
194
242
201
192
238
198
189
233
195
187
229
192
185
225
190
183
220
187
181
216
184
179
211
181
177
207
179
175
203
176
173
199
174
172
195
172
170
192
170
169
189
168
168
186
168
168
183
166
167
181
166
168
179
165
168
178
166
169
180
169
173
182
173
178
188
180
186
194
189
195
200
196
204
206
205
215
213
216
226
221
227
237
228
237
244
234
245
248
239
250
246
243
253
243
247
253
241
250
251
238
252
249
236
250
246
233
247
243
231
244
241
230
240
238
228
237
235
226
233
233
225
229
230
223
225
228
222
221
226
221
218
224
220
215
222
219
214
222
220
214
223
222
215
226
223
216
227
225
217
229
227
217
231
228
216
231
229
216
232
230
215
233
231
214
233
232
213
234
233
213
235
235
213
235
237
212
236
238
211
238
240
212
240
242
212
242
244
213
243
246
214
245
247
216
246
248
217
246
247
221
247
245
224
247
243
226
247
242
225
248
240
224
248
240
222
249
239
220
249
239
219
249
238
217
250
237
216
250
237
215
250
236
214
249
236
213
249
236
213
249
235
212
249
235
211
248
234
211
248
233
211
248
232
211
247
230
210
244
227
211
241
222
214
233
212
219
220
196
225
206
178
230
194
163
232
185
151
233
179
143
234
175
137
235
172
133
236
169
130
237
167
127
237
165
126
237
164
124
236
165
125
235
166
125
233
168
127
231
170
130
229
172
132
228
174
134
227
176
136
226
176
136
227
176
136
227
175
135
229
173
134
230
172
132
232
170
130
233
168
128
232
168
127
230
169
128
227
172
131
224
174
133
222
176
135
222
176
135
225
175
134
227
172
131
231
168
127
232
166
125
235
164
123
237
163
122
237
162
121
237
162
121
236
163
122
235
164
123
234
166
125
231
169
128
229
171
130
227
173
132
226
174
133
225
176
135
225
177
136
223
179
138
220
181
140
216
185
144
214
189
148
211
191
150
209
193
152
208
194
153
208
194
153
207
195
154
207
195
154
207
195
154
207
195
154
207
194
153
207
195
154
207
195
154
206
196
155
206
196
155
206
196
155
206
197
156
205
197
156
204
197
156
205
197
156
205
197
156
206
197
156
206
196
155
207
195
154
