P3
# CREATOR: GIMP PNM Filter Version 1.1
255 1
255
218
131
4
218
131
4
218
131
4
216
131
4
214
131
4
213
131
4
211
131
4
209
131
4
208
131
4
206
131
4
204
131
4
203
131
4
201
131
4
199
131
4
197
131
4
196
131
4
194
131
4
192
131
4
191
131
4
189
131
4
187
131
4
185
131
4
184
131
4
182
131
4
180
131
4
179
131
4
177
131
4
175
131
4
174
131
4
172
131
4
170
131
4
169
131
4
167
131
4
165
131
4
163
131
4
162
131
4
160
131
4
158
131
4
157
131
4
155
131
4
153
131
4
152
131
4
150
131
4
148
131
4
146
131
4
144
131
4
143
131
4
141
131
4
139
131
4
137
131
4
135
131
4
134
131
4
132
132
4
130
132
4
128
132
4
126
132
4
125
132
4
123
132
4
121
132
4
119
132
4
118
132
4
116
131
4
114
131
4
112
131
4
110
131
4
109
131
4
107
131
4
105
130
4
103
128
4
101
126
4
100
124
4
98
122
4
96
120
4
94
118
4
92
116
5
91
114
6
89
112
10
87
110
15
86
108
22
86
107
30
85
104
40
85
95
52
85
86
64
85
77
77
84
68
90
84
59
102
84
51
114
84
44
125
83
37
134
83
33
142
83
29
148
82
26
146
82
24
142
82
22
138
82
22
133
81
21
129
81
21
125
81
21
120
80
21
116
80
21
112
80
21
106
79
21
98
79
21
90
78
21
82
78
21
73
77
21
65
77
21
57
76
21
49
76
21
41
75
21
32
75
21
24
74
21
16
79
21
15
88
21
19
97
21
23
105
21
26
114
21
30
123
21
33
133
21
37
142
21
41
151
21
44
160
20
46
168
20
48
176
20
50
185
20
52
193
20
54
201
20
56
214
19
59
227
19
63
241
19
66
248
19
69
248
19
72
248
19
74
248
19
77
248
19
79
248
19
82
248
19
84
248
19
87
248
19
89
246
19
92
244
19
95
241
19
97
237
19
100
231
19
102
222
19
105
213
19
107
204
19
110
194
19
112
186
19
115
180
19
117
175
19
120
171
19
123
169
19
125
167
19
128
166
19
130
165
19
133
165
19
135
165
19
138
165
19
140
165
19
141
165
19
143
165
19
144
165
19
146
165
19
148
165
19
149
165
19
151
165
19
152
165
19
154
165
19
155
165
19
157
165
19
159
165
19
160
165
19
162
165
19
163
165
19
165
165
19
166
165
19
168
165
19
170
165
19
171
164
20
173
163
21
174
159
24
176
151
32
177
139
42
179
123
56
181
105
74
182
86
93
184
66
114
185
50
132
187
36
148
189
26
159
190
18
168
192
14
172
193
11
175
195
10
176
196
9
176
198
10
176
200
10
176
201
10
175
203
10
175
204
10
175
206
10
175
207
10
175
208
10
175
209
10
175
210
10
175
211
10
175
212
10
175
213
10
175
214
10
175
215
10
175
216
10
175
217
10
175
218
10
175
219
10
175
220
10
175
221
10
175
222
11
175
223
14
172
223
17
168
224
21
163
225
28
156
226
34
148
227
43
138
228
52
128
229
61
117
230
70
106
231
78
96
232
86
87
233
92
78
234
98
72
235
102
66
236
105
63
237
107
60
238
108
58
239
109
57
239
109
57
240
109
56
241
109
56
242
109
56
243
109
56
244
109
56
245
109
56
246
109
56
247
109
56
248
109
56
249
109
56
250
109
56
251
109
56
252
109
56
253
109
56
254
109
56
255
109
56
255
109
56
255
109
56
255
