P3
# CREATOR: GIMP PNM Filter Version 1.1
255 1
255
102
252
254
103
255
253
102
252
254
101
249
254
99
246
254
98
243
254
97
240
254
95
237
254
94
234
254
93
231
254
91
228
254
90
225
254
89
222
254
87
219
254
86
215
254
85
212
254
83
209
254
82
206
254
80
203
254
79
200
254
78
197
254
76
194
254
75
191
254
74
188
254
72
185
254
71
182
254
70
179
254
68
175
254
67
172
254
66
169
254
64
166
254
63
163
254
61
160
254
60
157
254
59
154
254
57
151
254
56
148
254
55
145
254
53
142
254
52
138
254
51
135
255
49
132
255
48
129
255
47
126
255
45
123
255
44
120
255
43
117
255
41
114
255
40
111
255
38
108
255
37
105
255
36
102
255
34
98
255
33
95
255
32
92
255
30
89
255
29
86
255
28
83
255
26
80
255
25
77
255
24
74
255
22
71
255
21
68
255
19
65
255
18
62
255
17
58
255
15
55
255
14
52
255
13
49
255
11
46
255
10
43
255
9
40
255
7
37
255
6
34
255
5
31
255
3
28
255
2
25
255
0
21
255
2
25
255
3
28
255
5
31
255
6
34
255
7
37
255
9
40
255
10
43
255
11
46
255
13
49
255
14
52
255
15
55
255
17
58
255
18
62
255
19
65
255
21
68
255
22
71
255
24
74
255
25
77
255
26
80
255
28
83
255
29
86
255
30
89
255
32
92
255
33
95
255
34
98
255
36
102
255
37
105
255
38
108
255
40
111
255
41
114
255
43
117
255
44
120
255
45
123
255
47
126
255
48
129
255
49
132
255
51
135
255
52
138
254
53
142
254
55
145
254
56
148
254
57
151
254
59
154
254
60
157
254
61
160
254
63
163
254
64
166
254
66
169
254
67
172
254
68
175
254
70
179
254
71
182
254
72
185
254
74
188
254
75
191
254
76
194
254
78
197
254
79
200
254
80
203
254
82
206
254
83
209
254
85
212
254
86
215
254
87
219
254
89
222
254
90
225
254
91
228
254
93
231
254
94
234
254
95
237
254
97
240
254
98
243
254
99
246
254
101
249
254
102
252
254
103
255
253
102
252
254
101
249
254
99
246
254
98
243
254
97
240
254
95
237
254
94
234
254
93
231
254
91
228
254
90
225
254
89
222
254
87
219
254
86
215
254
85
212
254
83
209
254
82
206
254
80
203
254
79
200
254
78
197
254
76
194
254
75
191
254
74
188
254
72
185
254
71
182
254
70
179
254
68
175
254
67
172
254
66
169
254
64
166
254
63
163
254
61
160
254
60
157
254
59
154
254
57
151
254
56
148
254
55
145
254
53
142
254
52
138
254
51
135
255
49
132
255
48
129
255
47
126
255
45
123
255
44
120
255
43
117
255
41
114
255
40
111
255
38
108
255
37
105
255
36
102
255
34
98
255
33
95
255
32
92
255
30
89
255
29
86
255
28
83
255
26
80
255
25
77
255
24
74
255
22
71
255
21
68
255
19
65
255
18
62
255
17
58
255
15
55
255
14
52
255
13
49
255
11
46
255
10
43
255
9
40
255
7
37
255
6
34
255
5
31
255
3
28
255
2
25
255
0
21
255
2
25
255
3
28
255
5
31
255
6
34
255
7
37
255
9
40
255
10
43
255
11
46
255
13
49
255
14
52
255
15
55
255
17
58
255
18
62
255
19
65
255
21
68
255
22
71
255
24
74
255
25
77
255
26
80
255
28
83
255
29
86
255
30
89
255
32
92
255
33
95
255
34
98
255
