P3
# CREATOR: GIMP PNM Filter Version 1.1
255 1
255
217
154
220
217
154
220
217
155
220
216
156
220
216
156
220
215
157
220
215
158
220
215
159
220
214
159
220
214
160
220
213
161
220
213
162
220
213
162
220
212
163
220
212
164
220
211
165
220
211
165
220
210
166
220
209
168
220
208
170
220
207
172
220
206
174
220
205
176
220
204
178
220
203
177
219
202
175
219
201
174
218
200
172
218
199
171
217
198
170
216
197
168
216
196
167
215
195
165
214
195
164
214
194
163
213
193
161
213
192
160
212
191
158
211
190
157
211
189
156
210
188
154
209
187
153
209
186
152
208
185
150
208
184
149
207
183
147
206
183
146
206
182
145
205
181
143
204
180
142
204
179
140
203
178
139
203
177
137
202
175
134
200
172
131
199
170
127
197
168
124
196
166
121
194
164
118
193
162
115
192
160
112
190
158
108
189
156
105
187
153
102
186
151
99
184
151
99
185
152
100
186
153
102
188
153
103
189
154
104
190
155
105
192
155
107
193
156
108
194
157
109
195
157
111
197
158
112
198
159
113
199
159
114
201
160
116
202
161
117
203
161
118
205
162
120
206
163
121
207
163
122
208
164
123
210
165
125
211
165
126
212
166
127
214
167
128
215
167
130
216
168
131
218
169
132
219
169
134
220
170
135
222
171
136
223
171
137
224
172
139
225
174
141
226
176
144
226
178
147
226
179
149
226
181
152
226
183
154
227
185
157
227
187
159
227
188
162
227
190
165
228
192
167
228
194
170
228
196
172
228
198
175
229
199
177
229
201
180
229
203
182
229
205
185
229
207
188
230
208
190
230
210
193
230
212
195
230
214
198
231
216
200
231
217
203
231
219
205
231
221
208
232
223
210
232
225
213
232
226
215
232
228
218
232
229
219
232
228
217
231
226
215
230
225
213
229
223
211
227
222
209
226
221
207
225
219
205
224
218
204
222
216
202
221
215
200
220
214
198
219
213
197
218
212
195
217
210
193
216
209
192
215
208
190
214
207
188
213
206
187
212
205
185
211
194
193
207
194
193
206
193
193
206
193
194
206
193
194
206
192
194
206
192
195
205
191
195
205
191
195
205
190
196
205
190
196
205
189
196
204
189
197
204
188
197
204
188
198
204
187
198
204
187
198
203
186
199
203
186
199
203
185
200
203
184
197
202
183
193
201
181
189
200
180
185
199
178
181
197
177
176
196
175
172
195
174
167
194
172
163
193
170
158
191
169
154
190
167
149
189
166
144
188
164
140
186
162
135
185
161
131
184
159
126
182
158
121
181
156
117
180
154
112
179
153
107
177
151
102
176
149
98
175
148
93
173
146
88
172
145
85
171
145
85
171
145
86
171
145
88
171
146
89
171
146
91
171
147
93
171
148
96
170
148
99
170
149
101
170
150
105
170
150
108
170
151
111
169
152
115
169
153
119
169
154
123
168
155
127
168
156
131
168
157
136
168
159
140
167
160
145
167
161
148
167
162
148
169
163
149
170
164
150
171
165
150
173
166
151
174
167
152
176
169
152
177
170
153
178
171
153
180
172
154
181
173
155
182
174
155
184
175
156
185
176
157
186
177
157
188
178
158
189
179
158
190
181
159
192
182
160
193
183
160
194
184
161
196
185
162
197
186
162
198
187
163
200
188
163
201
189
164
203
190
165
204
191
165
205
192
166
207
194
167
208
195
167
209
196
168
211
200
170
216
205
173
222
209
175
227
214
178
233
218
181
238
222
183
244
227
186
249
231
188
255
