P3
# CREATOR: GIMP PNM Filter Version 1.1
255 1
255
189
26
28
190
25
24
190
25
25
191
23
24
192
26
27
192
23
24
192
23
25
193
22
24
194
21
23
194
21
22
195
22
23
194
24
24
195
21
22
194
22
22
194
22
22
194
21
20
194
21
20
194
21
20
194
21
21
194
21
20
194
22
21
192
23
21
192
22
23
192
22
24
193
21
26
194
20
27
194
19
29
194
19
32
195
18
32
195
19
32
194
18
33
194
18
31
194
18
30
195
18
28
195
19
27
195
19
25
194
20
24
194
21
24
194
22
25
193
22
24
193
21
24
193
22
27
193
22
29
194
23
32
192
23
37
192
23
43
192
24
52
191
23
61
189
24
71
187
22
90
186
23
105
185
23
113
184
24
135
182
25
148
182
24
161
181
24
173
179
24
185
176
24
197
175
25
202
174
24
213
172
26
216
173
26
222
174
25
226
174
25
227
173
26
228
174
25
229
174
24
231
174
22
233
175
20
234
175
20
233
177
19
232
177
18
233
176
20
230
175
20
229
175
21
228
174
22
227
174
22
227
174
22
228
174
22
228
174
22
228
174
23
228
174
22
230
174
22
230
173
23
228
173
23
229
174
24
228
175
24
228
175
25
229
175
24
229
175
24
230
175
23
230
172
23
231
169
24
229
166
25
230
162
24
228
154
27
225
148
26
224
140
26
222
130
26
220
115
27
217
105
29
214
91
31
210
80
32
207
69
33
204
59
35
201
48
37
197
40
38
194
34
39
191
32
41
189
28
41
188
26
42
187
24
41
187
22
41
189
21
40
188
21
40
189
21
40
188
21
40
189
21
41
189
23
43
188
24
43
187
24
43
187
26
45
187
24
43
188
24
43
188
24
43
188
21
43
188
21
43
188
21
43
187
20
42
187
20
41
187
21
41
187
22
41
186
20
39
187
20
41
188
20
41
187
19
41
188
20
40
188
19
40
187
21
40
187
21
40
187
23
41
187
23
42
186
23
43
187
23
44
188
22
44
188
21
47
190
20
50
190
20
53
191
23
59
191
23
64
193
24
69
193
24
76
194
24
81
195
23
87
196
24
93
197
24
97
198
24
100
198
23
103
198
22
106
200
20
107
201
20
109
202
20
109
202
20
109
203
20
110
203
21
109
203
21
109
203
22
109
203
20
109
202
21
111
202
20
111
201
21
112
201
20
111
201
20
111
201
20
111
201
21
111
200
22
111
200
21
110
201
20
110
202
22
109
202
22
108
202
22
109
202
24
109
203
23
109
203
23
110
203
23
110
203
22
110
203
22
111
202
21
111
202
22
111
200
22
111
201
21
111
200
22
111
201
21
112
200
21
113
201
20
114
200
21
115
201
22
118
201
21
123
201
21
127
201
21
133
203
21
138
202
21
147
203
20
154
204
20
161
205
20
166
205
21
172
204
22
176
204
23
182
203
23
184
202
24
186
202
24
188
201
24
189
200
24
191
201
24
192
201
22
193
201
23
194
201
22
193
200
22
194
200
22
194
200
23
193
198
24
193
198
25
193
198
25
195
199
24
194
201
24
195
201
22
196
202
22
195
202
22
196
202
21
195
202
20
196
203
21
196
202
19
197
204
17
197
204
18
198
204
18
197
204
20
197
203
19
196
203
21
195
203
22
195
203
22
196
202
23
195
203
23
195
202
22
195
203
22
195
202
23
194
201
25
193
200
26
193
200
25
193
200
26
194
200
27
193
201
26
195
202
25
194
202
25
195
203
24
195
204
22
196
203
