P3
# CREATOR: GIMP PNM Filter Version 1.1
255 1
255
66
229
227
65
230
231
65
230
230
64
232
231
63
229
228
63
232
231
63
232
230
62
233
231
61
234
232
61
234
233
60
233
232
61
231
231
60
234
233
61
233
233
61
233
233
61
234
235
61
234
235
61
234
235
61
234
234
61
234
235
61
233
234
63
232
234
63
233
232
63
233
231
62
234
229
61
235
228
61
236
226
61
236
223
60
237
223
60
236
223
61
237
222
61
237
224
61
237
225
60
237
227
60
236
228
60
236
230
61
235
231
61
234
231
61
233
230
62
233
231
62
234
231
62
233
228
62
233
226
61
232
223
63
232
218
63
232
212
63
231
203
64
232
194
66
231
184
68
233
165
69
232
150
70
232
142
71
231
120
73
230
107
73
231
94
74
231
82
76
231
70
79
231
58
80
230
53
81
231
42
83
229
39
82
229
33
81
230
29
81
230
28
82
229
27
81
230
26
81
231
24
81
233
22
80
235
21
80
235
22
78
236
23
78
237
22
79
235
25
80
235
26
80
234
27
81
233
28
81
233
28
81
233
27
81
233
27
81
233
27
81
232
27
81
233
25
81
233
25
82
232
27
82
232
26
81
231
27
80
231
27
80
230
26
80
231
26
80
231
25
80
232
25
83
232
24
86
231
26
89
230
25
93
231
27
101
228
30
107
229
31
115
229
33
125
229
35
140
228
38
150
226
41
164
224
45
175
223
48
186
222
51
196
220
54
207
218
58
215
217
61
221
216
64
223
214
66
227
214
67
229
213
68
231
214
68
233
214
66
234
215
67
234
215
66
234
215
67
234
215
66
234
214
66
232
212
67
231
212
68
231
212
68
229
210
68
231
212
67
231
212
67
231
212
67
234
212
67
234
212
67
234
212
68
235
213
68
235
214
68
234
214
68
233
214
69
235
216
68
235
214
67
235
214
68
236
214
67
235
215
67
236
215
68
234
215
68
234
215
68
232
214
68
232
213
69
232
212
68
232
211
67
233
211
67
234
208
65
235
205
65
235
202
64
232
196
64
232
191
62
231
186
62
231
179
61
231
174
60
232
168
59
231
162
58
231
158
57
231
155
57
232
152
57
233
149
55
235
148
54
235
146
53
235
146
53
235
146
52
235
145
52
234
146
52
234
146
52
233
146
52
235
146
53
234
144
53
235
144
54
234
143
54
235
144
54
235
144
54
235
144
54
234
144
55
233
144
55
234
145
54
235
145
53
233
146
53
233
147
53
233
146
53
231
146
52
232
146
52
232
145
52
232
145
52
233
145
52
233
144
53
234
144
53
233
144
55
233
144
54
234
144
55
233
144
54
234
143
55
234
142
54
235
141
55
234
140
54
233
137
54
234
132
54
234
128
54
234
122
52
234
117
53
234
108
52
235
101
51
235
94
50
235
89
50
234
83
51
233
79
51
232
73
52
232
71
53
231
69
53
231
67
54
231
66
55
231
64
54
231
63
54
233
62
54
232
61
54
233
62
55
233
61
55
233
61
55
232
62
57
231
62
57
230
62
57
230
60
56
231
61
54
231
60
54
233
59
53
233
60
53
233
59
53
234
60
53
235
59
52
234
59
53
236
58
51
238
58
51
237
57
51
237
58
51
235
58
52
236
59
52
234
60
52
233
60
52
233
59
53
232
60
52
232
60
53
233
60
52
233
60
53
232
61
54
230
62
55
229
62
55
230
62
55
229
61
55
228
62
54
229
60
53
230
61
53
230
60
52
231
60
51
233
59
52
