P3
# CREATOR: GIMP PNM Filter Version 1.1
255 1
255
250
243
235
250
243
235
250
243
235
250
243
235
250
243
235
250
243
235
250
243
235
250
243
235
250
243
235
250
243
235
250
243
235
249
242
234
248
241
233
247
239
232
245
237
230
242
235
228
240
232
225
237
230
223
235
227
220
233
226
219
231
224
217
230
223
216
228
221
214
227
220
213
225
218
211
224
217
210
223
216
209
222
215
208
221
214
207
220
213
207
220
213
206
219
213
206
219
212
206
219
212
206
219
212
205
218
212
205
218
211
204
217
210
203
216
209
202
215
208
201
213
206
200
212
205
198
210
203
196
208
201
195
206
199
193
204
197
191
202
195
189
200
193
186
198
191
184
195
189
182
193
186
179
190
184
177
188
181
174
186
179
172
184
177
170
182
175
168
180
173
166
178
171
165
177
170
163
176
169
162
175
168
161
175
168
161
175
168
161
175
168
161
174
168
161
174
168
161
174
168
161
173
168
161
172
167
162
172
167
162
171
167
162
170
167
163
169
167
163
168
167
164
166
167
164
165
167
165
164
166
165
162
166
166
161
166
166
159
166
167
157
166
168
156
165
169
154
165
169
152
165
170
151
165
170
150
165
171
149
165
171
148
164
172
147
164
172
147
164
172
147
164
172
148
164
171
149
164
170
151
164
167
154
163
165
157
162
161
160
162
158
163
161
154
167
160
150
169
160
147
172
159
145
174
159
142
176
158
140
178
158
137
180
158
135
181
157
133
183
157
132
184
157
130
185
156
129
186
156
129
186
156
128
186
156
128
186
156
128
186
156
128
185
156
127
185
155
127
184
154
126
183
154
125
182
153
124
180
152
122
179
150
121
177
149
119
175
148
118
173
146
116
171
145
114
169
143
112
166
141
109
164
139
107
161
137
105
159
135
102
156
133
100
153
131
97
150
129
94
148
127
92
144
124
89
140
121
84
135
117
80
131
114
76
126
111
72
122
108
68
119
105
65
115
102
61
112
100
59
110
98
56
108
97
54
106
95
53
105
95
52
105
94
52
104
94
51
104
94
52
104
94
52
103
93
52
102
92
52
100
91
52
99
90
52
97
88
52
95
87
52
93
85
52
90
83
52
88
81
52
85
79
52
82
76
53
79
74
53
76
71
53
73
69
53
70
66
53
66
63
53
63
61
54
60
58
54
56
55
54
53
53
54
50
50
54
47
48
54
44
45
55
41
43
55
38
40
55
35
38
55
32
36
55
30
34
55
28
32
55
26
31
55
24
29
56
22
28
56
21
27
56
20
26
56
19
25
56
18
25
56
18
24
56
18
24
56
18
24
56
18
25
56
18
25
56
19
25
55
19
25
55
20
26
54
21
26
54
21
27
53
22
27
53
23
28
52
24
29
51
25
29
51
26
30
50
27
31
49
29
32
48
30
32
47
31
33
46
33
34
45
34
35
44
35
36
43
37
37
42
38
38
42
39
38
41
39
39
40
40
39
40
41
40
39
41
40
39
41
40
39
41
40
39
42
41
40
43
42
40
44
43
41
46
45
43
48
47
44
51
49
46
54
52
48
57
55
50
61
58
52
64
61
55
68
65
57
72
68
60
75
71
62
78
73
64
80
75
66
83
78
67
85
80
69
88
82
70
90
84
72
92
86
73
94
88
75
96
90
76
98
91
77
100
93
79
101
94
80
103
95
80
104
96
81
105
97
82
106
98
83
106
99
83
107
99
83
107
99
84
107
100
84
107
100
84
107
100
84
107
100
84
107
100
84
