P3
# CREATOR: GIMP PNM Filter Version 1.1
255 1
255
96
232
204
75
248
255
75
255
248
29
231
183
12
249
187
64
255
188
73
254
150
70
255
121
125
198
168
54
234
136
68
214
110
71
234
121
86
246
106
106
241
127
85
217
110
51
221
76
40
190
107
80
180
111
96
197
138
89
255
163
63
242
131
56
198
140
69
209
116
100
210
128
63
248
173
80
244
174
75
246
188
48
237
147
52
255
184
42
218
142
49
250
142
93
239
167
71
255
141
26
220
145
76
255
155
51
229
219
115
208
168
71
227
200
88
228
147
122
237
153
77
231
180
67
222
181
123
221
174
76
200
177
81
200
184
88
242
157
105
190
153
68
218
183
113
224
158
137
187
169
114
184
146
93
180
223
76
151
230
77
206
224
61
180
213
47
195
175
23
214
218
6
209
241
0
214
195
7
210
252
26
213
208
26
221
233
0
212
230
12
255
206
26
205
186
71
195
213
64
173
194
115
166
198
68
169
181
90
203
167
70
153
125
101
150
175
104
171
169
89
153
105
56
157
144
83
131
96
89
184
100
124
135
87
104
171
86
161
195
86
113
205
121
141
255
58
131
246
97
119
224
77
116
203
94
163
229
60
194
215
123
143
234
126
155
235
124
134
247
116
176
221
75
155
239
126
177
226
90
148
216
131
174
205
112
112
249
134
98
247
81
116
228
83
128
235
100
119
231
96
132
197
95
130
193
152
83
186
134
113
177
83
62
234
105
114
227
125
101
220
151
71
234
116
124
221
109
159
212
124
165
226
120
144
255
124
164
209
122
191
181
140
197
175
116
172
169
146
178
124
134
242
160
109
230
129
117
217
146
104
240
143
91
208
147
81
208
148
101
227
121
118
191
81
89
206
120
54
197
71
88
199
53
91
159
111
146
184
106
128
163
143
113
161
148
173
145
150
128
114
180
144
98
225
143
69
226
161
91
223
129
98
209
142
47
206
194
48
249
164
93
222
168
70
224
181
101
249
193
80
202
212
95
242
224
106
225
222
63
204
174
89
255
173
87
248
190
94
217
193
133
189
174
164
237
206
121
181
168
105
146
239
107
167
190
140
195
181
77
242
216
130
193
187
95
230
194
127
255
137
136
209
106
149
234
147
148
230
140
149
181
104
157
215
100
118
162
115
138
187
137
83
182
103
88
133
118
105
103
80
101
185
96
124
139
68
163
122
58
177
166
59
221
213
71
198
210
58
170
189
59
184
184
88
219
166
113
199
140
52
231
158
103
215
133
62
242
105
32
246
109
22
228
92
8
195
145
13
229
140
59
227
169
91
227
112
57
255
126
54
223
131
48
223
116
96
220
139
92
240
162
62
255
79
90
244
90
135
197
93
106
220
114
65
244
86
53
208
58
78
196
24
60
178
82
47
156
30
58
206
36
53
255
45
96
202
37
42
226
61
29
221
79
31
194
51
91
178
56
68
240
59
36
246
57
73
255
1
28
228
41
74
238
2
80
242
31
55
198
33
88
230
0
115
221
0
74
252
0
50
210
35
18
255
27
54
238
12
62
236
14
27
226
24
25
255
7
37
255
45
23
203
58
30
255
19
14
225
41
0
211
25
31
255
64
73
222
14
91
209
27
69
255
20
39
248
12
58
250
40
54
226
47
55
241
19
109
202
87
119
195
58
151
164
90
83
173
89
96
172
66
114
185
99
107
142
105
70
148
128
70
164
124
57
200
77
51
163
97
30
168
59
46
172
131
50
219
109
77
236
76
113
198
115
143
