P3
# CREATOR: GIMP PNM Filter Version 1.1
255 1
255
91
179
158
90
179
159
89
179
161
88
178
162
87
177
162
88
177
162
88
177
160
87
178
159
86
178
157
84
178
156
84
176
155
84
176
155
86
174
155
88
173
156
89
171
157
88
171
159
87
172
161
86
174
163
85
175
164
83
177
164
81
179
164
80
178
165
80
175
165
82
173
165
85
171
164
88
170
163
90
171
162
90
175
160
90
176
159
91
175
157
91
174
155
91
175
155
91
176
156
89
178
158
87
179
160
85
179
162
84
178
164
84
177
164
85
176
163
87
176
161
89
175
161
89
176
159
88
176
159
86
176
161
84
176
161
83
175
161
83
172
159
84
168
158
84
164
158
85
159
159
86
155
161
88
152
163
89
148
164
89
145
166
89
142
168
88
139
170
88
137
173
88
134
174
87
131
173
86
128
173
87
125
173
87
122
173
88
119
174
88
120
174
89
119
173
89
119
172
88
117
171
87
116
171
87
115
172
87
113
173
88
111
174
90
108
175
92
106
174
94
105
172
96
104
171
100
102
171
102
101
172
105
101
173
105
104
173
105
106
172
103
107
171
100
107
172
99
106
172
98
105
173
98
104
174
98
102
176
97
101
177
98
100
176
100
98
175
105
96
175
110
94
177
114
93
179
117
93
180
118
91
179
119
91
176
119
91
174
119
92
172
120
94
171
122
96
171
125
97
173
127
96
175
129
93
176
130
90
176
131
88
177
131
87
178
132
87
180
132
88
182
133
88
182
134
88
180
136
90
177
137
90
175
138
91
174
139
91
175
140
91
177
140
90
178
142
90
178
143
90
176
145
88
175
145
85
173
146
84
172
146
82
174
145
81
176
145
79
178
144
80
178
144
81
176
143
83
173
142
85
171
142
86
171
143
86
172
144
85
172
145
84
171
145
82
172
144
83
172
143
85
172
142
89
169
141
91
166
142
93
164
144
93
165
145
91
167
146
91
170
146
91
170
146
92
169
146
93
168
146
93
168
148
92
169
150
89
171
152
86
174
153
84
176
154
84
178
153
85
178
153
86
177
154
86
177
156
87
177
158
87
177
158
86
177
157
86
177
156
86
177
156
86
177
155
86
175
155
86
174
155
86
172
154
86
171
155
86
170
156
85
170
156
83
171
158
82
172
159
80
174
159
81
175
159
83
174
159
86
170
159
89
166
159
92
163
160
93
162
163
93
163
165
91
165
167
89
167
169
87
168
171
86
168
172
87
167
174
88
165
175
89
164
177
89
163
178
89
163
180
87
164
182
86
166
182
85
167
180
84
168
179
83
170
178
82
172
178
82
173
177
85
172
175
88
170
173
91
167
171
94
164
170
95
163
170
94
163
172
91
164
175
87
165
178
85
166
178
84
165
177
84
165
175
87
164
172
89
162
170
91
160
168
92
158
167
93
157
167
91
157
168
90
158
170
88
161
173
86
163
176
84
166
177
82
168
179
82
169
179
82
167
177
83
163
176
84
158
176
86
153
176
86
148
178
88
142
177
90
137
175
93
132
172
94
129
170
94
126
168
92
124
167
91
124
166
90
124
167
90
123
169
91
122
172
92
118
174
92
114
175
92
110
176
91
108
178
88
107
181
86
107
182
85
107
182
86
107
179
87
108
177
87
108
177
88
109
177
89
110
178
90
111
179
90
111
180
88
110
180
87
110
179
88
111
176
89
110
174
91
110
172
91
109
170
90
109
169
91
109
168
92
109
167
93
110
166
93
110
167
94
109
169
95
107
