P3
# CREATOR: GIMP PNM Filter Version 1.1
255 1
255
0
65
35
0
65
35
0
65
35
0
65
35
0
65
35
0
65
35
0
65
35
0
65
35
0
65
35
0
65
35
1
62
33
1
59
32
1
57
31
1
54
29
1
51
28
1
49
27
1
46
25
1
44
24
1
41
23
1
39
22
1
38
21
1
36
20
1
34
19
1
32
19
1
30
18
1
29
17
1
27
16
1
25
15
1
23
14
1
22
13
1
20
12
1
20
16
1
21
24
1
23
32
2
24
39
2
26
47
2
27
51
2
28
56
2
29
60
2
30
65
2
30
69
2
31
74
2
32
78
3
36
79
7
42
76
10
49
74
13
55
71
16
62
68
19
69
65
22
75
62
25
82
59
29
90
56
33
98
52
37
106
49
41
114
45
45
123
42
49
131
38
48
128
38
45
122
39
41
115
40
38
109
41
35
102
42
32
96
43
29
90
44
26
83
45
23
76
46
20
69
47
17
62
48
14
56
49
10
49
50
7
42
51
4
35
52
9
40
53
17
49
55
24
58
56
32
66
58
39
75
60
45
82
61
47
84
62
50
87
62
52
89
63
54
92
63
57
95
64
59
97
64
61
100
65
63
103
65
66
105
66
68
108
66
70
110
67
73
113
67
75
116
68
77
118
68
79
121
69
82
124
69
84
126
70
84
127
70
81
123
69
77
120
68
74
117
68
70
113
67
67
110
66
63
106
66
60
103
65
56
100
64
52
96
63
49
93
63
45
89
62
36
81
60
27
71
58
17
62
56
8
53
54
12
54
57
21
60
62
31
66
67
41
72
72
50
78
77
60
83
82
70
89
87
79
95
92
84
98
95
88
100
97
92
102
99
96
105
101
100
107
103
104
110
105
108
112
107
112
114
109
116
117
111
120
119
113
124
122
115
128
124
117
132
126
119
135
129
121
139
131
124
143
133
126
147
136
128
151
138
130
155
141
132
148
139
129
141
136
126
133
134
123
125
131
120
117
129
117
110
126
114
102
124
110
94
121
107
87
119
104
79
117
101
72
114
99
65
112
96
58
110
93
51
108
90
44
106
87
37
103
85
30
101
82
23
99
79
16
97
76
9
94
73
7
88
70
7
80
66
8
72
62
9
63
58
9
55
54
10
48
51
10
44
49
10
40
47
11
35
45
11
31
43
11
27
41
12
23
39
12
18
37
12
14
35
13
10
33
15
9
31
21
15
29
28
20
27
34
26
25
41
31
23
47
37
20
51
40
19
54
43
18
57
46
17
60
48
16
63
51
15
66
54
14
69
56
13
72
59
12
75
62
11
78
64
10
82
67
9
85
70
8
84
72
14
83
73
19
82
75
25
81
77
31
80
79
37
79
81
42
78
83
48
77
84
53
77
86
58
76
87
62
75
89
67
74
90
72
74
92
77
73
93
81
72
95
86
71
91
80
70
85
70
68
79
61
67
74
52
66
70
45
66
67
41
65
64
36
64
61
31
64
59
26
63
56
22
62
53
17
62
50
12
58
49
10
48
53
12
38
57
13
33
58
14
30
59
15
27
60
15
24
61
16
21
62
16
18
63
17
15
64
17
13
66
18
10
66
18
10
65
21
10
64
23
10
62
25
10
61
28
10
60
30
10
58
32
10
57
34
10
56
37
10
54
39
10
53
41
10
52
43
10
51
46
10
49
48
10
47
51
10
45
55
10
43
58
10
41
62
11
39
65
11
37
69
11
35
72
11
33
76
11
31
80
11
31
80
11
31
80
11
31
80
