P3
# CREATOR: GIMP PNM Filter Version 1.1
255 1
255
253
0
253
253
0
253
254
0
254
254
0
254
254
0
255
254
0
255
254
0
255
254
0
255
253
0
255
253
0
255
253
1
255
252
1
255
252
1
255
251
1
255
250
2
255
249
3
255
247
5
255
245
7
255
242
8
255
239
11
255
235
14
255
231
18
255
227
21
255
222
25
255
219
28
255
215
31
255
212
34
255
210
36
255
208
38
255
207
39
255
206
40
255
205
41
255
204
42
255
204
42
255
204
42
255
202
43
255
201
44
255
200
46
255
198
47
255
195
50
255
192
53
255
187
56
255
183
60
255
177
65
255
173
70
255
167
75
255
163
78
255
160
82
255
157
85
255
155
87
255
154
88
255
152
90
255
152
90
255
152
90
255
152
91
255
152
91
255
152
91
255
151
91
255
151
92
255
151
91
255
151
92
255
151
92
255
151
92
255
150
92
255
150
92
255
151
92
254
151
92
254
152
92
254
154
92
254
155
91
253
157
91
253
160
90
253
162
89
253
165
89
253
167
89
252
170
88
253
171
88
252
173
87
252
174
87
253
175
87
252
176
87
252
178
86
253
180
85
252
182
85
252
186
85
252
189
85
251
193
83
251
196
83
251
200
83
251
203
84
251
205
84
251
207
85
250
209
85
250
211
86
250
213
87
249
215
88
248
217
89
248
218
91
247
219
93
246
218
95
245
217
98
244
216
101
243
214
103
243
212
107
242
210
112
241
207
117
241
205
122
241
204
126
241
202
130
241
200
134
242
199
138
242
198
142
243
197
146
244
196
149
245
195
152
245
195
156
245
194
159
246
194
162
247
194
165
247
196
168
247
196
169
248
197
172
248
198
174
248
198
177
248
200
178
249
200
180
248
201
181
249
202
182
249
202
184
249
203
184
248
203
185
248
203
186
249
204
187
248
203
187
248
203
188
248
203
188
248
203
189
247
203
188
246
203
189
246
202
189
246
201
189
246
201
188
245
199
188
244
198
189
244
195
189
243
193
189
241
190
190
238
187
191
236
183
192
231
179
193
228
175
194
222
170
195
219
166
196
215
164
197
213
161
198
211
159
200
211
158
201
212
157
201
214
157
202
215
157
203
218
157
204
220
157
204
222
158
204
223
159
204
224
159
204
225
162
204
226
163
204
226
166
205
226
168
205
227
170
206
226
173
207
225
176
207
225
177
208
223
180
210
223
182
211
222
184
213
221
185
215
221
187
217
220
188
218
220
189
221
220
191
222
220
192
223
220
193
224
220
193
225
220
194
226
220
195
225
220
196
225
220
196
225
219
197
225
219
198
224
219
198
223
218
199
222
218
200
221
218
201
221
218
202
221
219
203
221
219
204
222
220
206
223
222
208
224
224
209
226
226
211
227
228
212
229
230
213
230
231
214
231
232
214
232
233
215
233
234
215
233
235
215
233
236
215
233
236
215
233
237
214
232
237
214
232
238
213
231
238
212
230
238
210
229
238
209
228
239
207
227
239
204
226
239
203
224
239
200
223
239
197
222
238
195
220
238
193
219
238
191
218
237
189
217
237
188
216
237
187
215
236
186
214
236
186
214
235
187
214
236
188
214
236
189
214
237
190
214
237
192
214
237
194
215
238
195
216
239
196
216
239
198
216
240
199
217
240
199
216
239
198
216
239
198
216
239
198
216
238
197
215
236
196
214
235
194
213
232
193
211
230
190
209
226
188
207
223
185
204
218
182
201
213
179
197
208
175
194
202
171
190
196
167
186
191
