P3
# CREATOR: GIMP PNM Filter Version 1.1
255 1
255
254
101
12
255
101
12
255
100
12
255
100
12
255
100
12
255
100
12
255
100
12
255
100
12
255
100
12
255
100
12
255
100
12
255
100
12
255
100
12
255
100
12
255
100
12
255
100
12
255
100
12
255
100
12
255
100
12
255
100
12
255
101
12
255
101
12
255
101
12
255
101
12
255
101
12
254
101
12
254
101
12
253
100
12
253
100
13
252
99
15
251
99
17
250
99
19
249
97
21
247
97
24
246
96
28
243
94
33
241
93
38
238
91
44
235
89
50
231
87
57
226
85
66
222
82
74
218
79
82
213
77
91
208
74
100
204
71
109
199
68
118
195
66
127
190
63
135
186
61
143
182
59
150
179
57
156
175
55
162
173
53
168
170
51
172
168
50
177
166
49
180
165
48
183
163
47
185
162
46
187
161
46
189
161
45
190
160
45
191
160
45
192
160
45
192
160
45
193
160
45
193
160
45
194
160
45
194
160
45
195
160
45
195
160
45
195
160
45
195
160
45
195
159
45
195
159
45
195
158
45
195
158
45
195
158
46
195
156
46
195
156
48
195
154
49
196
153
51
196
152
54
197
150
57
197
148
60
198
145
64
199
142
68
200
139
73
201
135
78
203
131
83
204
127
89
206
123
95
207
118
102
209
113
108
210
108
115
212
103
121
214
98
127
216
93
133
217
89
139
219
85
144
221
81
149
222
77
153
223
73
158
225
70
161
226
67
165
228
65
168
229
62
171
229
60
173
230
58
175
230
57
177
231
56
178
232
55
179
232
54
180
232
54
181
233
53
181
232
53
182
231
53
182
230
53
182
229
53
183
227
54
182
225
54
182
222
54
182
219
54
182
215
54
181
210
55
181
204
56
181
197
57
180
190
58
180
182
59
179
173
60
179
164
61
178
154
62
178
144
63
177
133
65
177
123
66
176
113
67
176
103
68
175
93
70
175
84
71
174
75
71
174
68
72
173
60
73
173
53
73
173
47
73
172
42
73
172
38
73
172
35
73
172
32
72
172
29
72
171
26
72
171
24
72
171
23
71
171
22
71
171
21
71
171
21
71
171
20
71
171
20
71
171
20
71
171
20
71
171
20
71
171
20
71
171
20
71
171
20
71
171
20
71
171
20
71
171
20
71
171
20
71
171
20
71
171
20
71
171
20
71
171
20
71
171
21
71
171
22
71
171
24
71
172
26
71
173
28
71
174
32
71
175
35
71
177
40
72
179
46
72
181
53
72
183
60
72
185
68
73
188
77
73
190
87
73
194
97
74
197
108
74
200
119
75
203
130
75
207
141
76
210
151
76
213
162
76
216
172
76
218
181
76
221
189
76
223
198
76
226
204
75
228
210
75
229
215
74
230
220
74
232
224
73
233
226
73
233
229
72
234
231
72
235
232
71
235
233
71
236
234
71
236
235
70
236
235
70
236
236
70
236
236
70
237
236
70
236
236
70
236
235
71
235
234
71
234
233
72
234
232
73
232
230
76
231
228
78
229
225
81
227
221
86
224
216
90
221
211
96
217
204
102
213
197
109
207
188
117
202
179
125
196
170
133
190
159
142
183
149
152
176
137
161
169
126
170
163
115
179
156
104
188
150
93
196
143
83
204
137
73
212
132
65
218
127
57
224
123
49
229
119
43
234
116
37
238
113
32
241
110
28
244
108
25
246
107
22
248
105
20
249
104
18
251
103
16
251
102
15
252
101
14
253
101
13
253
101
12
254
101
12
254
101
12
