P3
# CREATOR: GIMP PNM Filter Version 1.1
255 1
255
17
157
40
17
156
38
18
155
36
18
154
34
18
154
32
18
153
30
18
152
28
18
151
26
19
150
24
19
149
22
19
148
20
19
147
18
19
146
16
19
145
14
20
144
12
20
143
10
20
142
8
20
141
6
20
140
4
28
141
8
37
143
13
46
144
17
55
146
22
64
147
26
72
149
31
81
150
35
90
152
39
99
153
44
108
155
48
116
156
53
125
157
57
133
159
61
142
160
65
150
162
70
159
163
74
167
164
78
175
166
82
184
167
86
192
169
90
200
170
95
209
171
99
217
173
103
224
173
107
225
168
107
225
163
107
226
157
107
226
152
108
227
146
108
227
141
108
228
136
108
228
130
108
229
125
109
229
120
109
230
114
109
230
109
109
231
103
109
231
98
110
232
93
110
232
87
110
233
76
110
234
64
111
236
52
111
237
40
112
238
28
112
239
16
113
240
4
113
233
1
113
222
2
114
212
2
114
201
3
114
191
3
114
180
4
115
170
4
115
159
5
115
149
6
116
138
6
116
128
7
116
117
7
117
107
8
117
96
9
117
86
9
117
75
10
118
65
10
118
54
11
118
44
12
119
33
12
119
23
13
119
12
13
119
8
16
117
8
20
113
8
23
110
7
27
106
7
31
102
7
34
98
7
38
95
6
42
91
6
45
87
6
49
84
6
53
80
5
56
76
5
60
72
5
64
69
5
67
65
4
71
61
4
76
56
4
81
51
3
86
46
3
91
41
3
96
35
2
102
30
2
107
25
2
112
19
1
117
14
1
122
9
1
128
4
5
132
0
15
136
0
25
140
0
34
144
0
44
148
0
54
152
0
64
156
0
74
159
0
84
163
0
94
167
0
119
177
0
151
190
0
184
202
0
199
156
4
199
156
4
199
156
4
199
155
4
199
155
4
199
155
4
199
155
4
199
154
4
200
154
4
200
154
4
200
154
4
200
153
4
200
153
4
200
153
4
200
153
4
200
152
4
200
152
4
200
152
4
201
152
4
202
149
6
203
147
9
204
144
11
205
142
13
206
139
15
207
137
17
208
134
19
209
132
21
210
129
24
211
127
26
212
124
28
213
122
30
214
119
32
215
117
34
216
114
36
217
112
39
218
109
41
219
107
43
220
104
45
221
102
47
222
99
49
223
96
52
225
93
55
226
89
58
228
85
61
229
82
64
231
78
67
232
74
71
234
71
74
235
67
77
237
64
80
238
60
83
240
56
86
241
53
89
243
49
92
244
45
96
239
48
94
221
61
84
204
74
74
186
87
65
169
100
55
149
115
44
128
131
32
106
147
20
85
163
8
83
165
6
85
165
6
87
165
6
89
165
6
91
165
6
93
165
6
94
165
6
96
165
6
98
165
6
100
165
6
101
165
6
103
165
6
104
166
6
106
166
6
107
166
6
109
166
6
111
166
6
112
166
6
114
166
6
109
170
6
101
176
6
93
183
5
85
189
5
77
195
4
69
201
4
62
207
4
53
214
3
43
222
3
34
229
2
24
237
2
15
244
1
5
252
1
0
252
4
0
244
12
0
237
19
0
229
27
0
222
34
0
214
42
0
207
49
0
199
57
0
192
64
0
184
72
0
177
79
0
169
87
0
162
94
0
154
102
0
147
109
0
139
117
0
132
124
0
124
132
0
115
141
0
106
150
0
97
159
0
88
168
0
80
176
0
71
185
0
62
194
0
53
203
0
44
212
0
36
220
0
27
229
0
18
238
0
9
247
