P3
# CREATOR: GIMP PNM Filter Version 1.1
255 1
255
205
50
109
205
50
109
205
50
109
205
50
109
205
50
109
205
50
109
205
50
109
205
50
109
205
50
109
205
50
109
205
50
109
205
50
109
205
50
109
205
50
109
205
50
109
205
50
109
205
50
109
205
50
109
205
50
109
205
50
109
205
50
109
205
50
109
205
50
109
205
50
110
205
50
111
205
51
112
204
51
114
204
51
115
202
52
118
201
52
121
200
53
123
198
53
127
198
53
129
196
54
131
195
54
133
195
54
134
194
55
135
193
55
136
193
55
136
194
55
136
194
55
135
194
55
135
194
55
135
195
55
135
194
55
135
194
55
136
194
56
137
193
57
139
191
57
142
190
58
145
188
58
149
186
59
154
183
60
159
181
62
163
178
63
169
176
64
175
173
65
179
172
65
184
169
65
187
168
66
191
166
65
193
165
64
195
164
64
196
163
63
198
162
62
199
160
62
201
159
60
203
157
59
205
155
57
206
152
55
209
151
54
210
150
52
211
147
50
213
146
48
214
144
47
214
142
45
215
141
43
216
140
42
216
138
40
217
138
40
217
137
39
217
137
39
217
137
39
217
137
39
217
138
40
217
140
41
216
141
42
215
142
43
214
144
45
212
145
46
211
145
46
212
146
46
212
145
46
213
144
46
213
144
45
213
143
44
214
142
44
215
142
44
215
142
44
215
141
44
215
141
43
215
141
43
215
141
43
216
141
43
216
141
43
216
140
42
216
139
43
217
139
43
217
138
44
216
137
46
216
136
50
216
135
54
214
134
60
212
133
67
210
132
74
208
130
83
206
129
91
203
127
98
200
126
105
199
125
110
196
125
116
195
124
120
194
123
123
193
123
126
192
123
128
191
122
130
191
122
130
190
122
131
190
122
134
190
121
136
189
121
139
188
121
143
186
120
149
185
119
154
183
117
161
181
116
167
179
116
173
178
115
178
176
114
182
175
114
186
174
113
188
173
113
190
172
112
192
172
112
193
171
112
193
171
112
194
171
112
194
170
112
196
170
112
197
169
111
198
169
110
200
168
110
203
167
108
207
166
107
212
164
106
217
162
105
222
160
103
226
158
102
230
157
101
233
155
100
236
154
99
239
153
98
242
152
97
243
151
97
245
150
96
246
150
96
247
150
96
247
150
96
247
149
96
248
149
96
248
150
96
248
150
96
248
149
96
248
149
96
248
149
96
249
149
95
250
149
95
251
148
94
252
147
94
253
147
93
254
146
93
254
146
94
254
146
94
254
147
94
254
147
94
254
148
94
254
148
93
254
148
92
253
149
92
253
150
91
252
151
89
250
153
88
249
155
86
247
158
83
244
161
81
242
164
79
240
166
77
238
169
76
237
171
74
235
173
73
234
174
71
232
176
71
232
177
70
231
178
69
230
178
69
230
179
69
230
179
69
230
179
69
230
180
68
229
180
67
228
182
66
227
183
65
226
185
63
224
187
62
223
189
60
221
191
59
220
193
58
219
195
57
218
195
56
217
197
54
215
198
54
215
200
52
213
202
50
211
204
49
210
205
48
209
207
47
208
208
46
207
209
45
206
210
45
206
210
44
205
210
44
205
210
44
205
210
44
205
210
44
205
210
44
205
210
44
205
210
44
205
210
44
205
210
44
205
211
44
205
211
44
205
211
43
204
212
42
203
213
42
203
213
41
202
213
41
202
214
41
202
214
41
202
214
41
202
214
41
202
214
41
202
214
41
202
214
41
202
214
41
202
214
41
202
214
