P3
# CREATOR: GIMP PNM Filter Version 1.1
255 1
255
79
255
255
79
255
252
79
255
249
78
255
246
78
255
244
78
255
241
78
255
238
78
255
235
78
255
232
78
255
230
78
255
227
78
255
224
78
255
221
77
255
218
77
255
216
77
255
213
77
255
210
77
255
207
77
255
204
77
255
202
77
255
199
77
255
196
76
255
193
76
255
191
76
255
188
76
255
185
76
255
182
76
255
179
76
255
177
76
255
174
76
255
171
76
255
168
75
255
165
75
255
163
75
255
160
75
255
157
75
255
154
75
255
151
75
255
149
75
255
146
75
255
143
75
255
140
74
255
137
74
255
135
74
255
132
74
255
129
74
255
126
74
255
123
74
255
121
74
255
118
74
255
115
74
255
112
73
255
109
73
255
107
73
255
104
73
255
101
73
255
98
73
255
96
73
255
93
73
255
90
73
255
87
73
255
84
72
255
82
72
255
79
72
255
76
72
255
73
72
255
70
72
255
68
72
255
65
72
255
62
72
255
59
72
255
56
71
255
54
71
255
51
71
255
48
71
255
45
71
255
42
71
255
40
71
255
37
71
255
34
71
255
31
71
255
28
70
255
26
70
255
23
70
255
20
70
255
17
70
255
14
70
255
12
70
255
9
70
255
6
70
255
3
69
255
0
69
255
0
71
254
1
74
252
2
76
250
3
78
248
4
81
245
5
83
243
6
85
241
7
88
239
8
90
236
9
92
234
10
95
232
11
97
230
12
99
228
13
102
225
14
104
223
15
106
221
16
109
219
17
111
217
18
113
214
19
116
212
20
118
210
21
120
208
22
123
206
23
125
203
24
127
201
25
130
199
26
132
197
27
134
194
28
137
192
29
139
190
30
141
188
31
144
186
32
146
183
33
148
181
34
151
179
35
153
177
36
155
174
37
158
172
38
160
170
39
162
168
40
165
166
41
167
163
43
169
161
43
172
159
44
174
157
45
176
154
47
178
152
47
181
150
48
183
148
49
186
146
50
188
143
51
190
141
53
193
139
54
195
137
54
197
134
56
200
132
57
202
130
57
204
128
59
207
126
60
209
123
60
211
121
62
214
119
63
216
117
63
218
114
65
221
112
66
223
110
67
225
108
68
228
106
69
230
104
70
232
101
71
235
99
72
237
97
73
239
94
74
242
92
75
244
90
76
246
88
77
249
85
78
251
83
79
253
81
79
255
79
80
255
78
81
255
78
81
255
78
81
255
79
81
254
81
82
253
82
84
252
84
85
251
86
86
251
87
88
250
89
89
249
91
90
248
93
92
247
94
93
246
96
94
245
98
96
244
100
97
243
101
98
242
103
99
241
105
101
240
106
102
239
108
103
238
110
105
237
111
106
236
113
107
235
115
109
234
117
110
233
118
111
233
120
113
232
122
114
231
124
115
230
125
117
229
127
118
228
129
119
227
130
121
226
132
122
225
134
123
224
135
125
223
137
126
222
139
127
221
141
129
220
142
130
219
144
131
218
146
133
217
148
134
216
149
135
215
151
137
215
153
138
214
154
139
213
156
141
212
158
142
211
160
143
210
161
145
209
163
146
208
165
147
207
166
149
206
168
150
205
170
151
204
172
153
203
173
154
202
175
155
201
177
157
200
178
158
199
180
159
198
182
161
197
184
162
197
185
163
196
187
165
195
189
166
194
190
167
193
192
168
192
194
170
191
196
171
190
197
172
189
199
174
188
201
175
187
202
177
186
204
178
186
205
178
186
205
178
186
205
178
186
205
178
186
205
178
