P3
# CREATOR: GIMP PNM Filter Version 1.1
255 1
255
54
253
255
54
250
254
54
247
254
54
244
254
54
241
254
54
238
254
54
235
254
54
232
254
54
229
254
54
226
254
54
223
254
54
220
254
54
217
254
54
213
254
54
210
254
54
207
254
54
204
254
54
201
254
54
198
254
54
195
254
54
192
254
54
189
254
54
186
254
54
183
254
54
180
254
54
176
254
54
173
254
54
170
254
54
167
254
54
164
254
54
161
254
54
158
254
53
155
254
53
152
253
53
149
253
53
146
253
53
143
253
53
140
253
53
136
253
53
133
253
53
130
253
53
127
253
53
124
253
53
121
253
53
118
253
53
115
253
53
112
253
53
109
253
53
106
253
53
103
253
53
99
253
53
96
253
53
93
253
53
90
253
53
87
253
53
84
253
53
81
253
53
78
253
53
75
253
53
72
253
53
69
253
53
66
253
53
62
253
53
59
253
52
56
253
52
53
252
55
52
252
58
52
252
61
52
252
64
52
252
67
52
252
70
52
252
73
52
252
76
52
252
79
52
252
82
52
252
85
52
252
88
52
252
91
52
252
94
52
252
97
52
252
100
52
252
103
52
252
106
52
252
109
52
252
112
52
252
115
52
252
118
52
252
121
52
252
124
52
252
127
52
252
130
52
252
133
52
252
136
52
252
139
52
252
142
52
252
145
51
251
148
51
251
151
51
251
154
51
251
157
51
251
160
51
251
163
51
251
166
51
251
169
51
251
172
51
251
175
51
251
178
51
251
181
51
251
184
51
251
187
51
251
190
51
251
193
51
251
197
51
251
200
51
251
203
51
251
206
51
251
209
51
251
212
51
251
215
51
251
218
51
251
221
51
251
224
51
251
227
51
251
230
51
251
233
51
251
236
51
251
239
51
251
242
50
250
245
50
250
248
50
250
250
50
250
250
50
247
250
50
244
250
50
241
250
50
238
250
50
235
250
50
231
250
50
228
250
50
225
250
50
222
250
50
219
250
50
216
250
50
213
250
50
210
250
50
207
250
50
204
250
50
201
250
50
198
250
50
194
250
50
191
250
50
188
250
50
185
250
50
182
250
50
179
250
50
176
250
50
173
250
50
170
250
50
167
249
49
164
249
49
161
249
49
158
249
49
154
249
49
151
249
49
148
249
49
145
249
49
142
249
49
139
249
49
136
249
49
133
249
49
130
249
49
127
249
49
124
249
49
121
249
49
117
249
49
114
249
49
111
249
49
108
249
49
105
249
49
102
249
49
99
249
49
96
249
49
93
249
49
90
249
49
87
249
49
84
249
49
81
249
49
77
249
49
74
249
49
71
248
49
68
248
48
65
248
48
62
248
48
59
248
48
56
248
48
53
248
48
50
248
50
48
248
53
48
248
56
48
248
59
48
248
62
48
248
65
48
248
68
48
248
71
48
248
74
48
248
77
48
248
80
48
248
83
48
248
86
48
248
89
48
248
92
48
248
95
48
248
98
48
248
101
48
248
104
48
248
107
48
248
110
48
248
113
48
248
116
48
247
119
48
247
122
48
247
125
48
247
128
47
247
131
47
247
134
47
247
137
47
247
140
47
247
143
47
247
146
47
247
149
47
247
153
47
247
156
47
247
159
47
247
162
47
247
165
47
247
168
47
247
171
47
247
174
47
247
177
47
247
180
47
247
183
47
247
186
47
247
189
47
247
192
47
247
195
47
247
198
47
247
201
47
247
204
47
247
207
47
246
210
47
246
213
47
246
216
47
246
219
47
246
222
47
