P3
# CREATOR: GIMP PNM Filter Version 1.1
255 1
255
38
248
224
38
248
224
37
248
224
36
248
224
35
247
224
34
246
224
33
246
223
31
244
222
29
243
222
28
241
222
27
239
221
26
237
221
26
235
220
25
231
218
23
227
217
22
223
216
21
219
215
20
215
214
19
212
213
19
210
213
19
207
212
19
205
212
20
203
211
21
200
211
22
197
210
23
195
210
24
192
209
24
189
208
25
187
208
26
184
208
27
182
207
28
180
206
30
177
206
30
174
206
31
172
205
31
169
204
31
167
204
31
164
203
31
163
202
30
161
202
30
159
202
30
158
202
31
158
201
31
157
201
31
157
202
31
156
201
31
154
201
31
153
200
31
151
200
31
149
200
30
148
199
30
146
199
29
145
199
29
143
198
29
142
198
29
141
198
29
141
197
29
140
197
29
139
197
28
139
197
27
138
196
27
137
196
27
137
196
26
136
195
25
135
195
25
135
195
25
135
195
24
134
195
24
133
195
24
133
195
24
133
195
24
133
195
23
133
195
24
133
195
24
133
195
25
132
195
25
132
195
26
132
195
26
132
195
26
131
195
26
130
195
26
129
195
26
129
194
26
128
194
27
128
194
27
127
194
27
126
194
27
126
194
27
125
194
27
125
194
28
125
194
29
123
194
30
123
194
32
122
194
34
121
194
35
120
195
38
119
195
41
117
195
45
115
195
48
113
195
52
111
195
55
108
195
59
105
196
63
101
196
66
99
196
70
96
196
72
95
196
75
92
196
79
89
196
83
85
196
87
81
196
90
77
196
93
74
196
96
71
196
99
69
195
100
66
195
102
63
195
103
62
195
104
61
195
103
61
195
103
61
195
102
61
195
101
62
195
101
62
195
101
62
195
100
62
195
100
62
195
100
61
195
99
62
195
98
62
195
98
63
195
98
63
195
98
62
194
99
61
194
100
59
194
100
57
194
102
55
193
103
52
193
105
49
192
107
46
191
108
44
191
109
42
190
111
39
189
113
36
188
114
34
187
116
32
186
117
31
184
118
29
183
119
28
181
121
27
179
122
25
177
124
24
175
125
22
173
127
21
171
128
20
168
129
19
166
130
18
164
131
17
162
131
17
159
132
17
156
133
17
153
133
17
151
133
17
149
133
18
147
133
18
145
133
19
143
132
19
141
132
19
140
132
20
140
132
20
139
132
20
138
131
21
137
131
22
136
131
22
136
131
23
135
131
23
135
131
24
135
132
24
135
132
25
135
132
25
135
132
25
135
132
26
136
132
26
136
132
26
137
133
27
138
133
27
138
133
27
138
133
27
138
133
28
138
133
28
138
133
28
138
133
28
137
134
29
137
134
29
137
135
30
135
136
31
134
137
33
132
138
34
130
138
34
129
139
35
128
139
34
127
139
34
126
139
34
125
139
34
124
139
35
123
139
35
121
139
34
121
139
34
120
139
34
119
139
34
116
138
33
113
138
32
108
137
31
103
137
30
98
136
28
93
135
27
89
135
26
85
135
25
82
135
24
81
134
23
79
134
23
77
134
23
76
134
22
75
133
22
74
133
22
72
133
21
71
133
21
68
133
20
65
133
20
63
132
19
61
132
19
60
132
19
59
132
19
58
132
19
58
132
19
57
132
19
56
131
19
56
131
19
55
131
19
54
131
19
53
131
19
52
131
19
51
131
18
50
131
18
49
131
18
48
132
18
48
132
18
47
132
18
47
132
18
46
131
18
46
131
18
45
132
18
45
132
19
46
132
19
46
132
19
46
