P3
# CREATOR: GIMP PNM Filter Version 1.1
255 1
255
55
255
255
55
254
254
56
254
253
57
254
252
58
254
251
58
254
250
59
254
250
60
254
249
61
254
248
61
253
247
62
253
246
63
253
245
64
253
245
64
253
244
65
253
243
66
253
242
67
253
241
67
252
241
68
252
240
69
252
239
70
252
238
70
252
237
71
252
236
72
252
236
73
252
235
73
251
234
74
251
233
75
251
232
76
251
232
76
251
231
77
251
230
78
251
229
79
251
228
79
250
227
80
250
227
81
250
226
82
250
225
82
250
224
83
250
223
84
250
223
85
250
222
85
249
221
86
249
220
87
249
219
88
249
218
88
249
218
89
249
217
90
249
216
91
249
215
92
248
214
92
248
214
93
248
213
94
248
212
95
248
211
95
248
210
96
248
209
97
248
209
98
247
208
98
247
207
99
247
206
100
247
205
101
247
205
101
247
204
102
247
203
103
247
202
104
246
201
104
246
200
105
246
200
106
246
199
107
246
198
107
246
197
108
246
196
109
246
196
110
245
195
110
245
194
111
245
193
112
245
192
113
245
191
113
245
191
114
245
190
115
245
189
116
244
188
116
244
187
117
244
187
118
244
186
119
244
185
119
244
184
120
244
183
121
244
182
122
243
182
122
243
181
123
243
180
124
243
179
125
243
178
126
243
178
126
243
177
127
243
176
128
242
175
129
242
174
129
242
173
130
242
173
131
242
172
132
242
171
132
242
170
133
242
169
134
241
169
135
241
168
135
241
167
136
241
166
137
241
165
138
241
164
138
241
164
139
241
163
140
240
162
141
240
161
141
240
160
142
240
160
143
240
159
144
240
158
144
240
157
145
240
156
146
239
155
147
239
155
147
239
154
148
239
153
149
239
152
150
239
151
150
239
151
151
239
150
152
238
149
153
238
148
153
238
147
154
238
146
155
238
146
156
238
145
156
238
144
157
238
143
158
237
142
159
237
141
159
237
141
160
237
140
161
237
139
162
237
138
163
237
137
163
237
137
164
236
136
165
236
135
166
236
134
166
236
133
167
236
132
168
236
132
169
236
131
169
236
130
170
235
129
171
235
128
172
235
128
172
235
127
173
235
126
174
235
125
175
235
124
175
235
123
176
234
123
177
234
122
178
234
121
178
234
120
179
234
119
180
234
119
181
234
118
181
234
117
182
233
116
183
233
115
184
233
114
184
233
114
185
233
113
186
233
112
187
233
111
187
233
110
188
232
110
189
232
109
190
232
108
190
232
107
191
232
106
192
232
105
193
232
105
193
232
104
194
231
103
195
231
102
196
231
101
197
231
101
197
231
100
198
231
99
199
231
98
200
231
97
200
230
96
201
230
96
202
230
95
203
230
94
203
230
93
204
230
92
205
230
92
206
230
91
206
229
90
207
229
89
208
229
88
209
229
87
209
229
87
210
229
86
211
229
85
212
229
84
212
228
83
213
228
83
214
228
82
215
228
81
215
228
80
216
228
79
217
228
78
218
228
78
218
227
77
219
227
76
220
227
75
221
227
74
221
227
74
222
227
73
223
227
72
224
227
71
224
226
70
225
226
69
226
226
69
227
226
68
227
226
67
228
226
66
229
226
65
230
226
65
231
225
64
231
225
63
232
225
62
233
225
61
234
225
60
234
225
60
235
225
59
236
225
58
237
224
57
237
224
56
238
224
56
239
224
55
240
224
54
240
224
53
241
224
52
242
224
51
243
223
51
243
223
50
244
223
49
245
223
48
246
223
47
246
223
47
