P3
# CREATOR: GIMP PNM Filter Version 1.1
255 1
255
116
200
246
112
198
245
107
196
245
102
194
244
98
192
244
95
191
243
92
190
243
91
189
243
89
188
242
89
188
242
88
188
242
88
188
242
88
188
241
88
188
241
88
188
241
88
187
241
88
187
241
87
187
241
87
187
241
88
187
241
87
188
241
87
188
241
87
188
241
88
188
241
88
187
241
89
188
241
89
187
242
89
188
241
89
188
241
89
188
241
89
188
242
90
189
242
90
189
242
91
189
242
91
189
242
91
189
242
92
190
242
92
189
242
91
189
242
91
189
242
90
188
242
90
188
242
90
188
241
90
188
242
90
188
241
92
188
240
93
189
240
95
189
241
97
189
240
99
189
240
101
190
240
103
190
240
106
190
239
110
191
239
115
192
239
120
194
238
126
195
237
133
196
236
140
197
235
147
198
233
155
199
231
161
200
228
168
201
226
173
201
224
177
202
222
180
201
219
183
200
216
184
199
213
187
198
209
189
196
203
192
193
196
195
190
186
197
186
175
199
181
163
201
175
151
204
171
139
205
167
131
206
164
124
207
163
119
208
162
116
209
161
114
209
160
111
209
160
110
209
159
109
209
159
108
210
159
106
210
158
106
211
159
106
211
158
106
212
159
106
212
158
105
211
158
104
211
157
103
211
157
102
211
156
102
212
156
102
212
157
102
212
157
102
212
157
103
212
157
102
212
157
102
212
157
102
211
157
102
212
157
102
212
157
102
211
157
103
212
157
103
212
157
103
212
157
103
211
157
104
211
157
104
211
157
105
211
158
106
210
158
107
210
159
108
209
159
109
209
159
110
208
160
112
207
160
114
206
160
116
204
160
118
203
161
121
202
162
124
199
162
127
197
162
130
195
163
134
192
164
138
189
165
143
185
166
149
181
167
154
177
168
160
172
169
167
168
170
174
162
171
180
158
171
186
154
172
192
149
172
196
144
171
200
140
170
203
135
169
207
129
168
210
121
166
214
113
164
219
106
162
223
100
161
228
96
161
232
93
162
235
93
163
237
92
163
238
92
163
239
92
163
240
92
164
241
92
164
241
91
164
241
90
163
241
90
163
241
89
162
241
90
163
241
90
164
241
90
164
242
91
164
242
91
165
242
91
164
242
91
164
242
91
164
242
91
164
242
91
164
242
91
163
242
90
163
242
90
163
242
89
163
242
89
163
242
89
163
242
90
164
242
90
164
242
90
164
242
91
164
242
91
165
242
91
164
242
92
165
242
92
165
242
94
165
241
96
166
241
99
167
242
102
169
242
105
171
242
109
173
242
113
175
241
119
178
241
125
180
241
131
183
241
138
186
241
146
189
239
153
191
239
160
194
237
166
196
236
171
197
234
176
197
232
181
197
229
185
197
227
189
196
223
193
194
219
197
191
215
200
189
211
203
186
206
207
183
201
210
179
196
213
176
191
216
173
187
218
169
181
221
166
176
223
162
171
224
158
166
227
154
161
229
149
154
230
143
147
232
137
140
234
130
132
235
123
123
237
117
117
238
113
112
238
109
107
240
106
104
240
104
102
241
103
99
241
102
98
241
101
97
242
101
97
242
101
96
242
100
95
242
99
94
242
98
94
241
97
93
241
97
92
241
97
92
241
97
93
242
98
93
242
98
93
242
98
93
242
98
93
241
99
93
241
99
94
241
98
94
241
98
94
241
98
94
241
99
94
241
100
95
242
102
98
242
105
100
243
109
104
244
113
109
244
118
114
244
123
118
245
127
124
245
131
127
