P3
# CREATOR: GIMP PNM Filter Version 1.1
255 1
255
243
163
110
242
163
109
241
162
108
239
161
108
238
160
107
237
159
107
235
158
106
234
157
105
233
156
105
231
155
104
230
155
104
229
154
103
227
153
102
226
152
102
224
151
101
223
150
101
222
149
100
220
148
99
219
147
99
218
147
98
216
146
98
215
145
97
214
144
97
212
143
96
211
142
95
209
141
95
208
140
94
207
139
94
205
139
93
204
138
92
203
137
92
201
136
91
200
135
91
199
134
90
197
133
89
196
132
89
194
131
88
193
131
88
192
130
87
190
129
87
189
128
86
188
127
85
186
126
85
185
125
84
184
124
84
182
123
83
181
123
82
180
122
82
178
121
81
177
120
81
175
119
80
174
118
79
173
117
79
171
116
78
170
115
78
169
114
77
167
114
77
166
113
76
165
112
75
163
111
75
162
110
74
160
109
74
159
108
73
158
107
72
156
106
72
155
106
71
154
105
71
152
104
70
151
103
69
150
102
69
148
101
68
147
100
68
145
99
67
144
98
67
143
98
66
141
97
65
140
96
65
139
95
64
137
94
64
136
93
63
135
92
62
133
91
62
132
90
61
131
90
61
129
89
60
128
88
59
126
87
59
125
86
58
124
85
58
122
84
57
120
83
56
117
81
55
115
79
54
112
78
53
110
76
52
107
74
51
105
73
49
102
71
48
99
69
47
97
67
46
94
66
45
92
64
44
89
62
43
86
61
42
84
59
41
81
57
39
79
56
38
76
54
37
73
52
36
71
51
35
68
49
34
66
47
33
63
45
32
61
44
30
58
42
29
55
40
28
53
39
27
50
37
26
48
35
25
45
34
24
42
32
23
40
30
22
37
29
20
35
27
19
32
25
18
30
23
17
27
22
16
24
20
15
22
18
14
19
17
13
17
15
11
14
13
10
11
12
9
9
10
8
6
8
7
4
7
6
1
5
5
101
122
133
144
171
188
168
199
218
179
213
234
187
221
243
189
224
246
125
165
202
96
137
181
75
118
167
59
103
156
46
90
147
35
80
139
26
72
133
19
66
129
14
61
125
10
57
122
6
54
119
3
51
118
2
50
116
1
49
116
1
49
116
3
51
117
5
53
119
7
55
120
9
57
122
11
59
123
13
61
125
15
63
126
17
65
128
19
67
129
21
69
131
23
71
132
24
73
134
26
74
135
28
76
137
30
78
138
32
80
139
34
82
141
36
84
142
38
86
144
40
88
145
42
90
147
44
92
148
46
94
150
48
96
151
50
98
153
52
100
154
54
102
156
56
104
157
58
106
159
60
108
160
62
110
162
64
112
163
66
114
164
67
115
166
69
117
167
71
119
169
73
121
170
75
123
172
77
125
173
79
127
175
81
129
176
83
131
178
85
133
179
87
135
181
89
137
182
91
139
183
93
141
185
95
143
186
97
145
188
98
146
189
100
148
191
102
150
192
104
152
194
106
154
195
108
156
196
110
158
198
112
160
199
114
162
201
116
164
202
118
166
204
120
168
205
121
169
207
123
171
208
125
173
209
127
175
211
129
177
212
131
179
214
133
181
215
135
183
217
137
185
218
139
187
220
141
189
221
142
190
222
144
192
224
146
194
225
148
196
227
150
198
228
152
200
230
154
202
231
156
204
233
158
206
234
160
208
235
162
210
237
164
212
238
165
213
240
161
211
239
148
203
236
136
196
233
123
188
230
111
180
227
98
173
224
85
165
220
73
158
217
60
150
214
48
142
211
35
135
208
23
127
205
