P3
# CREATOR: GIMP PNM Filter Version 1.1
255 1
255
10
29
70
9
28
70
9
28
70
9
28
69
9
28
68
9
27
67
9
27
67
9
27
68
9
27
67
10
27
68
10
28
69
10
28
69
10
28
70
10
28
71
10
28
71
10
28
72
10
28
72
10
28
72
10
28
72
10
28
72
10
28
72
10
28
72
10
28
71
10
28
71
10
28
71
10
28
70
10
28
71
10
28
70
10
28
70
10
28
71
10
28
71
10
28
71
10
28
71
10
28
71
10
28
71
10
28
71
10
28
71
10
28
71
10
28
71
10
28
71
10
27
71
10
28
71
10
27
71
10
27
71
10
27
71
11
26
71
11
26
70
11
26
71
11
26
71
11
27
71
11
27
72
11
28
73
11
28
74
11
29
75
11
29
75
11
29
75
11
29
75
11
29
74
11
29
74
11
29
74
11
29
74
11
28
74
11
28
74
11
28
73
11
27
73
11
28
73
11
28
74
11
29
75
10
29
75
10
29
76
10
30
77
10
30
77
10
31
78
10
32
79
9
33
81
9
35
82
9
36
83
9
37
85
9
38
87
9
39
88
9
41
91
8
42
92
8
43
94
8
44
95
8
45
97
8
47
98
8
48
100
8
49
102
7
51
104
8
52
106
8
55
108
9
58
111
9
60
114
10
63
117
11
66
120
11
69
122
12
72
125
12
76
129
13
80
133
15
86
138
15
92
144
17
98
150
19
104
156
21
110
161
26
116
166
32
124
172
41
133
177
52
142
183
64
152
190
77
162
196
86
171
201
95
177
205
101
183
208
105
187
210
108
190
211
111
193
213
114
195
214
118
198
215
122
200
217
126
203
219
129
205
221
132
207
222
134
208
223
135
208
224
135
209
224
135
209
224
135
210
224
133
210
223
133
211
223
133
211
223
133
212
224
135
214
224
137
215
225
140
216
226
142
218
227
144
219
228
147
220
229
150
219
229
154
220
231
158
220
232
163
219
234
166
218
235
171
217
237
174
217
239
175
215
235
175
214
232
175
213
229
175
212
227
176
212
226
176
211
225
176
211
224
176
211
224
177
211
224
177
210
224
177
210
223
177
209
222
177
209
219
177
207
216
176
206
212
176
203
205
176
200
196
175
197
188
175
193
179
174
190
170
173
187
162
173
184
155
172
181
148
172
179
141
171
176
135
170
174
129
170
171
124
170
169
119
169
167
113
169
165
108
168
163
104
168
161
100
168
161
97
168
160
94
168
159
92
168
157
89
168
156
85
168
154
81
167
152
77
165
149
72
163
145
66
161
141
59
158
136
54
155
132
51
152
129
47
150
125
44
147
122
43
144
120
42
143
118
40
141
116
40
139
114
39
137
112
38
136
110
38
134
108
37
132
106
36
130
104
36
129
102
35
127
100
34
125
98
34
123
96
33
123
95
32
122
93
31
120
91
31
120
89
30
119
88
29
120
87
28
120
85
27
121
85
26
122
84
25
123
83
24
123
82
23
122
81
23
121
80
22
119
79
21
117
77
21
115
75
21
114
74
20
111
73
21
112
72
20
113
72
19
114
72
19
115
73
18
118
74
18
118
74
18
118
74
18
118
73
18
117
73
18
116
72
19
115
72
19
115
72
18
116
73
19
118
74
19
119
76
20
121
77
20
123
79
20
125
80
20
127
80
20
127
81
20
127
81
20
125
80
20
122
78
20
118
76
21
113
72
20
106
69
20
102
65
20
98
64
21
95
63
21
95
64
21
95
64
22
95
66
22
97
67
23
