P3
# CREATOR: GIMP PNM Filter Version 1.1
255 1
255
0
0
0
0
0
0
0
0
1
0
0
2
0
0
3
1
0
4
1
0
4
1
0
5
1
1
6
2
1
7
2
1
8
2
1
9
2
1
10
3
1
11
3
2
12
3
2
13
3
2
14
4
2
15
4
2
16
4
2
17
4
2
18
5
3
18
5
3
19
5
3
20
5
3
21
6
3
22
6
3
23
6
3
24
7
4
25
7
4
26
7
4
27
7
4
28
8
4
29
8
4
30
8
5
31
8
5
31
9
5
32
9
5
33
9
5
34
9
5
35
10
5
36
10
6
37
10
6
38
10
6
39
11
6
40
11
6
41
11
6
42
11
6
43
12
7
44
12
7
44
12
7
45
12
7
46
13
7
47
13
8
49
12
9
50
12
11
52
12
12
53
12
13
55
12
14
56
12
15
58
12
17
60
11
18
61
11
19
63
11
20
64
11
21
66
11
23
67
11
24
69
11
25
71
10
26
72
10
27
74
10
29
75
10
30
77
10
31
78
10
32
80
9
33
81
9
35
83
9
36
84
9
37
86
9
38
88
9
39
89
9
41
91
8
42
92
8
43
94
8
44
95
8
45
97
8
47
98
8
48
100
8
49
102
7
50
103
7
51
105
7
53
106
7
54
108
7
55
109
7
56
111
7
57
113
6
59
114
6
60
116
6
61
118
6
63
120
6
65
123
5
67
125
5
69
128
5
71
130
5
73
133
4
75
135
4
77
138
4
79
140
4
81
143
3
83
145
3
84
148
3
86
150
3
88
153
2
90
155
2
92
158
2
94
160
2
96
163
1
98
165
1
100
168
1
102
171
1
104
173
0
106
176
0
108
178
0
110
181
0
112
183
0
114
186
13
128
189
26
142
192
39
156
195
52
171
198
60
180
200
69
189
202
77
198
204
85
207
206
93
216
208
102
225
210
110
229
213
120
227
217
129
225
220
138
224
224
147
222
228
156
220
231
164
218
235
173
217
238
181
215
242
181
212
234
180
209
226
180
206
218
179
203
209
179
200
201
178
197
193
177
195
185
177
192
177
176
189
169
176
186
161
175
183
153
175
180
145
175
179
141
174
177
137
174
176
133
174
174
128
174
172
124
173
171
120
173
169
116
173
168
111
172
166
107
172
165
103
172
163
98
172
162
94
171
160
90
171
159
86
171
157
81
171
155
77
170
154
73
170
152
69
170
151
64
169
149
60
169
148
56
169
146
51
167
144
50
166
142
49
164
141
49
162
139
48
160
137
47
159
135
47
157
133
46
155
131
45
153
129
44
152
127
44
150
125
43
148
123
42
146
121
42
144
119
41
143
118
40
141
116
40
139
114
39
137
112
38
136
110
38
134
108
37
132
106
36
130
104
36
129
102
35
127
100
34
125
98
34
123
96
33
122
95
32
120
93
31
118
91
31
116
89
30
114
87
29
113
85
29
111
83
28
109
81
27
107
79
27
106
77
26
104
75
25
102
74
25
100
72
24
99
70
23
97
68
23
95
66
22
94
64
21
92
63
21
90
61
20
89
59
19
87
57
19
85
55
18
84
54
18
82
52
17
80
50
16
79
48
16
77
46
15
75
44
14
74
43
14
72
41
13
70
39
12
69
37
12
67
35
11
65
33
10
64
32
10
62
30
9
60
28
8
58
26
8
57
24
7
55
23
6
53
21
6
52
19
5
50
17
4
48
15
4
47
13
3
45
12
3
43
10
2
42
8
1
40
6
1
38
4
0
37
3
0
