P3
# CREATOR: GIMP PNM Filter Version 1.1
255 1
255
1
255
102
0
255
103
0
255
103
0
255
104
0
255
106
0
255
107
0
255
108
0
255
110
0
255
111
0
255
113
0
255
114
0
255
116
0
255
118
0
255
120
0
255
122
0
255
125
0
255
127
0
255
130
0
255
133
0
255
135
0
255
138
0
255
141
0
255
144
0
254
148
0
254
151
0
254
154
0
254
157
0
254
161
0
254
164
0
254
167
0
253
170
0
253
173
0
253
176
0
252
180
0
252
183
0
252
185
0
251
188
0
251
191
0
250
194
0
250
196
0
249
199
0
248
201
0
247
203
0
247
206
0
246
208
0
245
210
0
244
212
0
242
213
0
241
215
0
240
216
0
239
218
0
237
219
0
236
220
0
234
222
0
232
223
0
231
224
0
229
225
0
227
226
0
225
227
0
223
227
0
221
228
0
218
229
1
216
230
1
214
230
1
212
231
1
209
232
1
207
232
1
204
233
1
202
234
2
199
234
2
196
235
2
194
235
2
191
236
3
188
236
3
186
236
3
183
237
4
181
237
255
0
0
255
0
0
255
0
0
255
0
0
255
0
0
255
0
0
255
0
0
255
0
0
255
0
0
255
0
0
255
0
0
255
0
0
16
151
236
17
149
236
19
148
235
20
146
234
23
145
231
25
144
227
28
144
219
29
145
211
30
146
205
30
147
202
30
147
201
30
147
201
30
147
201
30
147
201
30
147
201
30
147
201
30
147
201
30
147
201
30
147
201
30
147
201
30
147
201
30
147
201
31
147
201
33
147
199
34
148
197
34
148
196
33
148
198
31
148
200
31
147
201
30
147
201
30
147
201
30
147
201
30
147
201
31
147
201
35
148
196
41
149
184
51
150
166
64
152
142
77
153
118
89
154
96
96
155
80
102
156
70
106
156
64
108
156
60
108
156
58
108
156
57
108
156
57
108
156
57
108
156
57
108
156
57
108
156
57
108
156
57
109
156
57
111
157
55
117
159
48
127
162
36
141
168
21
155
175
9
165
182
3
172
186
1
176
189
0
178
190
0
178
190
0
178
190
0
178
190
0
178
190
0
178
190
0
179
190
0
179
191
0
181
193
0
185
195
0
192
200
0
201
208
0
213
216
0
223
224
0
231
230
0
236
233
0
237
234
0
237
234
0
237
234
0
237
234
0
237
234
0
237
234
0
237
234
0
237
234
0
237
234
0
237
234
0
236
234
1
234
232
1
226
228
3
215
222
5
201
213
7
186
205
10
174
198
12
167
193
13
160
191
15
152
187
19
140
183
24
127
179
32
116
176
37
110
174
40
107
173
41
106
172
41
105
172
41
105
172
42
105
173
42
105
173
43
104
174
44
102
175
49
97
178
55
90
180
65
81
184
78
73
188
91
66
191
101
62
193
106
60
193
108
60
193
108
59
194
110
58
196
115
56
198
122
52
202
133
48
205
143
45
207
150
43
208
153
43
209
154
43
209
154
43
210
155
43
210
155
43
210
155
43
210
155
43
210
155
43
210
155
43
210
155
43
210
155
43
210
155
43
210
155
43
210
155
43
211
156
42
213
158
41
216
160
40
222
163
38
228
165
36
233
166
34
236
165
33
238
163
33
239
161
32
240
158
31
241
156
30
241
153
29
242
151
28
243
148
27
244
146
26
244
143
24
245
141
23
246
138
22
246
136
21
247
133
20
247
131
19
248
129
18
249
126
16
249
124
15
250
122
14
250
120
13
250
118
12
251
116
11
251
115
