P3
# CREATOR: GIMP PNM Filter Version 1.1
255 1
255
37
124
251
37
124
251
37
124
251
39
124
251
41
124
251
42
124
251
44
124
251
46
124
251
47
124
251
49
124
251
51
124
251
52
124
251
54
124
251
56
124
251
58
124
251
59
124
251
61
124
251
63
124
251
64
124
251
66
124
251
68
124
251
70
124
251
71
124
251
73
124
251
75
124
251
76
124
251
78
124
251
80
124
251
81
124
251
83
124
251
85
124
251
86
124
251
88
124
251
90
124
251
92
124
251
93
124
251
95
124
251
97
124
251
98
124
251
100
124
251
102
124
251
103
124
251
105
124
251
107
124
251
109
124
251
111
124
251
112
124
251
114
124
251
116
124
251
118
124
251
120
124
251
121
124
251
123
123
251
125
123
251
127
123
251
129
123
251
130
123
251
132
123
251
134
123
251
136
123
251
137
123
251
139
124
251
141
124
251
143
124
251
145
124
251
146
124
251
148
124
251
150
125
251
152
127
251
154
129
251
155
131
251
157
133
251
159
135
251
161
137
251
163
139
250
164
141
249
166
143
245
168
145
240
169
147
233
169
148
225
170
151
215
170
160
203
170
169
191
170
178
178
171
187
165
171
196
153
171
204
141
171
211
130
172
218
121
172
222
113
172
226
107
173
229
109
173
231
113
173
233
117
173
233
122
174
234
126
174
234
130
174
234
135
175
234
139
175
234
143
175
234
149
176
234
157
176
234
165
177
234
173
177
234
182
178
234
190
178
234
198
179
234
206
179
234
214
180
234
223
180
234
231
181
234
239
176
234
240
167
234
236
158
234
232
150
234
229
141
234
225
132
234
222
122
234
218
113
234
214
104
234
211
95
235
209
87
235
207
79
235
205
70
235
203
62
235
201
54
235
199
41
236
196
28
236
192
14
236
189
7
236
186
7
236
183
7
236
181
7
236
178
7
236
176
7
236
173
7
236
171
7
236
168
7
236
166
9
236
163
11
236
160
14
236
158
18
236
155
24
236
153
33
236
150
42
236
148
51
236
145
61
236
143
69
236
140
75
236
138
80
236
135
84
236
132
86
236
130
88
236
127
89
236
125
90
236
122
90
236
120
90
236
117
90
236
115
90
236
114
90
236
112
90
236
111
90
236
109
90
236
107
90
236
106
90
236
104
90
236
103
90
236
101
90
236
100
90
236
98
90
236
96
90
236
95
90
236
93
90
236
92
90
236
90
90
236
89
90
236
87
90
236
85
90
236
84
91
235
82
92
234
81
96
231
79
104
223
78
116
213
76
132
199
74
150
181
73
169
162
71
189
141
70
205
123
68
219
107
66
229
96
65
237
87
63
241
83
62
244
80
60
245
79
59
246
79
57
245
79
55
245
79
54
245
80
52
245
80
51
245
80
49
245
80
48
245
80
47
245
80
46
245
80
45
245
80
44
245
80
43
245
80
42
245
80
41
245
80
40
245
80
39
245
80
38
245
80
37
245
80
36
245
80
35
245
80
34
245
80
33
244
80
32
241
83
32
238
87
31
234
92
30
227
99
29
221
107
28
212
117
27
203
127
26
194
138
25
185
149
24
177
159
23
169
168
22
163
177
21
157
183
20
153
189
19
150
192
18
148
195
17
147
197
16
146
198
16
146
198
15
146
199
14
146
199
13
146
199
12
146
199
11
146
199
10
146
199
9
146
199
8
146
199
7
146
199
6
146
199
5
146
199
4
146
199
3
146
199
2
146
199
1
146
199
0
146
199
0
146
199
0
146
199
0
