P3
# CREATOR: GIMP PNM Filter Version 1.1
255 1
255
156
89
151
155
89
150
154
86
147
153
84
144
152
82
141
151
79
138
150
77
135
149
75
131
148
73
128
147
70
124
147
68
121
146
66
117
145
63
114
144
61
110
143
59
106
142
57
103
141
54
98
140
50
92
138
47
86
137
44
80
136
40
73
135
37
67
133
34
60
132
30
54
131
27
47
130
24
39
134
34
45
147
67
71
161
100
97
174
133
123
176
138
127
178
143
131
180
148
135
182
153
139
184
158
143
186
163
147
188
168
151
190
173
155
192
178
158
193
182
162
195
186
165
189
186
159
170
179
136
156
175
119
158
176
121
159
178
123
160
179
125
162
181
127
163
182
129
164
184
131
166
185
133
167
187
135
169
188
137
170
190
139
171
191
141
173
193
143
174
195
145
175
196
147
177
198
149
178
199
151
180
201
153
181
202
155
182
204
157
184
205
159
185
207
161
186
208
163
188
210
166
190
213
169
192
215
172
195
217
176
197
220
179
199
222
182
201
225
185
203
227
188
205
230
192
208
232
195
210
234
198
212
237
201
214
239
205
216
242
208
218
244
211
211
243
214
205
243
218
198
242
221
191
242
225
185
241
228
178
241
231
171
240
234
165
240
238
158
239
241
152
239
244
147
239
246
147
239
246
148
239
246
148
239
246
148
239
246
148
239
246
149
239
246
149
239
245
150
239
245
150
239
245
151
239
244
152
239
244
153
239
244
153
239
243
154
239
243
155
239
242
156
239
242
157
239
241
159
240
241
160
240
240
161
240
240
162
240
239
164
240
238
165
240
238
166
240
237
168
240
236
169
240
235
171
240
235
172
241
234
174
241
233
175
241
233
177
241
232
178
241
231
180
241
230
181
241
229
183
241
229
185
241
228
186
242
227
188
242
226
190
242
225
191
242
225
193
242
224
194
242
223
196
242
222
198
242
221
199
243
221
201
243
220
202
243
219
203
243
219
205
243
218
206
243
217
207
243
217
208
243
216
210
243
215
211
243
215
212
243
214
213
244
214
214
244
213
214
244
213
215
244
213
216
244
212
216
244
212
217
244
212
217
244
212
218
244
211
218
244
211
218
244
211
218
244
211
218
244
211
190
186
159
181
183
149
173
180
139
165
178
130
158
175
120
159
178
122
162
182
128
166
186
133
170
190
139
173
194
144
177
198
149
180
202
155
184
206
160
187
210
165
190
213
169
193
216
173
196
219
177
198
222
181
201
225
185
204
228
189
207
231
194
209
234
198
212
237
202
215
240
206
218
243
210
183
184
151
157
175
120
158
177
122
160
178
124
161
180
126
162
181
128
164
183
130
165
184
132
166
186
134
168
188
136
169
189
138
170
191
140
172
192
142
173
194
144
175
195
146
176
197
148
177
198
150
179
200
152
180
201
154
181
203
156
183
204
158
184
206
160
185
207
162
187
209
164
188
210
166
190
212
168
191
213
170
192
215
172
194
216
174
176
255
255
174
253
252
168
246
245
161
237
236
153
228
228
148
222
222
164
181
176
75
74
150
18
7
133
13
0
131
13
0
131
13
0
131
13
0
131
13
0
131
13
0
131
13
0
131
57
53
148
161
176
189
217
240
208
215
236
204
213
231
200
211
226
197
209
221
193
207
216
189
205
211
185
203
206
181
201
201
177
199
196
173
197
191
169
195
187
166
193
182
162
191
177
158
190
172
154
188
167
150
186
162
146
184
157
142
182
152
138
180
148
135
178
143
131
176
138
127
174
133
123
